999
FreeCAD v0.20 29603 (Git)
  0
SECTION
  2
HEADER
  9
$ACADVER
  1
AC1014
  9
$ACADMAINTVER
 70
     9
  9
$DWGCODEPAGE
  3
ANSI_1252
  9
$TEXTSTYLE
  7
STANDARD
  9
$DIMSTYLE
  2
STANDARD
  9
$DIMTXSTY
  7
STANDARD
  9
$CMLSTYLE
  2
STANDARD
  9
$LUNITS
 70
2
  9
$INSUNITS
 70
4
  9
$PEXTMAX
 10
50
 20
50
 30
50
  9
$PEXTMIN
 10
0
 20
0
 30
0
  9
$HANDSEED
  5
FFFF
  0
ENDSEC
  0
SECTION
  2
CLASSES
  0
CLASS
  1
ACDBDICTIONARYWDFLT
  2
AcDbDictionaryWithDefault
  3
ObjectDBX Classes
 90
        0
280
     0
281
     0
  0
CLASS
  1
XRECORD
  2
AcDbXrecord
  3
ObjectDBX Classes
 90
        0
280
     0
281
     0
  0
CLASS
  1
LWPOLYLINE
  2
AcDbPolyline
  3
ObjectDBX Classes
 90
        0
280
     0
281
     1
  0
ENDSEC
  0
SECTION
  2
TABLES
  0
TABLE
  2
VPORT
  5
20
330
0
100
AcDbSymbolTable
 70
     1
  0
VPORT
  5
21
330
20
100
AcDbSymbolTableRecord
100
AcDbViewportTableRecord
  2
*ACTIVE
 70
     0
  0
ENDTAB
  0
TABLE
  2
LTYPE
  5
22
330
0
100
AcDbSymbolTable
 70
     1
  0
LTYPE
  5
23
330
21
100
AcDbSymbolTableRecord
100
AcDbLinetypeTableRecord
  2
BYBLOCK
 70
     0
  3

 72
    65
 73
     0
 40
0.0
  0
LTYPE
  5
24
330
21
100
AcDbSymbolTableRecord
100
AcDbLinetypeTableRecord
  2
BYLAYER
 70
     0
  3

 72
    65
 73
     0
 40
0.0
  0
LTYPE
  5
25
330
21
100
AcDbSymbolTableRecord
100
AcDbLinetypeTableRecord
  2
CONTINUOUS
 70
     0
  3
Solid line
 72
    65
 73
     0
 40
0.0
  0
ENDTAB
  0
TABLE
  2
LAYER
  5
B4C
330
0
100
AcDbSymbolTable
 70
15
  0
LAYER
  5
B4D
330
B4C
100
AcDbSymbolTableRecord
100
AcDbLayerTableRecord
  2
0
 70
   0
 62
   7
  6
CONTINUOUS
  0
LAYER
  5
B4E
330
B4C
100
AcDbSymbolTableRecord
100
AcDbLayerTableRecord
  2
none
 70
    0
 62
    7
  6
CONTINUOUS
  0
LAYER
  5
B4F
330
B4C
100
AcDbSymbolTableRecord
100
AcDbLayerTableRecord
  2
polygon139_3
 70
    0
 62
    7
  6
CONTINUOUS
  0
LAYER
  5
B50
330
B4C
100
AcDbSymbolTableRecord
100
AcDbLayerTableRecord
  2
polygon141
 70
    0
 62
    7
  6
CONTINUOUS
  0
LAYER
  5
B51
330
B4C
100
AcDbSymbolTableRecord
100
AcDbLayerTableRecord
  2
polygon143
 70
    0
 62
    7
  6
CONTINUOUS
  0
LAYER
  5
B52
330
B4C
100
AcDbSymbolTableRecord
100
AcDbLayerTableRecord
  2
polygon145
 70
    0
 62
    7
  6
CONTINUOUS
  0
LAYER
  5
B53
330
B4C
100
AcDbSymbolTableRecord
100
AcDbLayerTableRecord
  2
polygon141_4
 70
    0
 62
    7
  6
CONTINUOUS
  0
LAYER
  5
B54
330
B4C
100
AcDbSymbolTableRecord
100
AcDbLayerTableRecord
  2
polygon143_7
 70
    0
 62
    7
  6
CONTINUOUS
  0
LAYER
  5
B55
330
B4C
100
AcDbSymbolTableRecord
100
AcDbLayerTableRecord
  2
polygon145_6
 70
    0
 62
    7
  6
CONTINUOUS
  0
LAYER
  5
B56
330
B4C
100
AcDbSymbolTableRecord
100
AcDbLayerTableRecord
  2
polygon225
 70
    0
 62
    7
  6
CONTINUOUS
  0
LAYER
  5
B57
330
B4C
100
AcDbSymbolTableRecord
100
AcDbLayerTableRecord
  2
polygon227
 70
    0
 62
    7
  6
CONTINUOUS
  0
LAYER
  5
B58
330
B4C
100
AcDbSymbolTableRecord
100
AcDbLayerTableRecord
  2
polygon229
 70
    0
 62
    7
  6
CONTINUOUS
  0
LAYER
  5
B59
330
B4C
100
AcDbSymbolTableRecord
100
AcDbLayerTableRecord
  2
polygon225_0
 70
    0
 62
    7
  6
CONTINUOUS
  0
LAYER
  5
B5A
330
B4C
100
AcDbSymbolTableRecord
100
AcDbLayerTableRecord
  2
polygon227_4
 70
    0
 62
    7
  6
CONTINUOUS
  0
LAYER
  5
B5B
330
B4C
100
AcDbSymbolTableRecord
100
AcDbLayerTableRecord
  2
polygon229_5
 70
    0
 62
    7
  6
CONTINUOUS
  0
ENDTAB
  0
TABLE
  2
STYLE
  5
70
330
0
100
AcDbSymbolTable
 70
     2
  0
STYLE
  5
71
330
70
100
AcDbSymbolTableRecord
100
AcDbTextStyleTableRecord
  2
STANDARD
 70
     0
 40
0.0
 41
1.0
 50
0.0
 71
     0
 42
2.5
  3
arial.ttf
  4

  0
STYLE
  5
72
330
70
100
AcDbSymbolTableRecord
100
AcDbTextStyleTableRecord
  2
ANNOTATIVE
 70
     0
 40
0.0
 41
1.0
 50
0.0
 71
     0
 42
2.5
  3
arial.ttf
  4

  0
ENDTAB
  0
TABLE
  2
VIEW
  5
73
330
0
100
AcDbSymbolTable
 70
     0
  0
ENDTAB
  0
TABLE
  2
UCS
  5
74
330
0
100
AcDbSymbolTable
 70
     0
  0
ENDTAB
  0
TABLE
  2
APPID
  5
75
330
0
100
AcDbSymbolTable
 70
     2
  0
APPID
  5
76
330
75
100
AcDbSymbolTableRecord
100
AcDbRegAppTableRecord
  2
ACAD
 70
     0
  0
APPID
  5
77
330
75
100
AcDbSymbolTableRecord
100
AcDbRegAppTableRecord
  2
ACADANNOTATIVE
 70
     0
  0
ENDTAB
  0
TABLE
  2
DIMSTYLE
  5
78
330
0
100
AcDbSymbolTable
 70
     2
  0
DIMSTYLE
105
79
330
78
100
AcDbSymbolTableRecord
100
AcDbDimStyleTableRecord
  2
STANDARD
 70
     0
  3

  4

  5

  6

  7

 40
0.0
 41
2.5
 42
0.625
 43
3.75
 44
1.25
 45
0.0
 46
0.0
 47
0.0
 48
0.0
140
2.5
141
2.5
142
0.0
143
0.03937007874016
144
1.0
145
0.0
146
1.0
147
0.625
 71
     0
 72
     0
 73
     0
 74
     0
 75
     0
 76
     0
 77
     1
 78
     8
170
     0
171
     3
172
     1
173
     0
174
     0
175
     0
176
     0
177
     0
178
     0
270
     2
271
     2
272
     2
273
     2
274
     3
340
71
275
     0
280
     0
281
     0
282
     0
283
     0
284
     8
285
     0
286
     0
287
     3
288
     0
  0
ENDTAB
  0
TABLE
  2
BLOCK_RECORD
  5
A01
330
0
100
AcDbSymbolTable
  70
5
  0
BLOCK_RECORD
  5
A02
330
A01
100
AcDbSymbolTableRecord
100
AcDbBlockTableRecord
  2
*MODEL_SPACE
  0
BLOCK_RECORD
  5
A03
330
A01
100
AcDbSymbolTableRecord
100
AcDbBlockTableRecord
  2
*PAPER_SPACE
  0
ENDTAB
  0
ENDSEC
  0
SECTION
  2
BLOCKS
  0
BLOCK
  5
A04
330
A02
100
AcDbEntity
  8
0
100
AcDbBlockBegin
  2
*MODEL_SPACE
 70
   0
 10
0
 20
0
 30
0
  3
*MODEL_SPACE
  1
 
  0
ENDBLK
  5
A05
330
A02
100
AcDbEntity
  8
0
100
AcDbBlockEnd
  0
BLOCK
  5
A06
330
A03
100
AcDbEntity
 67
1
  8
0
100
AcDbBlockBegin
  2
*PAPER_SPACE
 70
   0
 10
0
 20
0
 30
0
  3
*PAPER_SPACE
  1
 
  0
ENDBLK
  5
A07
330
A03
100
AcDbEntity
 67
    1
  8
0
100
AcDbBlockEnd
  0
ENDSEC
  0
SECTION
  2
ENTITIES
  0
SPLINE
  5
A08
330
A02
100
AcDbEntity
  8
polygon139_3
100
AcDbSpline
210
0
220
0
230
1
 70
8
 71
1
 72
4
 73
2
 74
0
 40
0
 40
0
 40
0.313665
 40
0.313665
 10
209.254
 20
-106.214
 30
0
 10
208.955
 20
-106.375
 30
0
  0
SPLINE
  5
A09
330
A02
100
AcDbEntity
  8
polygon139_3
100
AcDbSpline
210
0
220
0
230
1
 70
8
 71
1
 72
4
 73
2
 74
0
 40
0
 40
0
 40
0.313555
 40
0.313555
 10
208.955
 20
-106.375
 30
0
 10
208.646
 20
-106.508
 30
0
  0
SPLINE
  5
A0A
330
A02
100
AcDbEntity
  8
polygon139_3
100
AcDbSpline
210
0
220
0
230
1
 70
8
 71
1
 72
4
 73
2
 74
0
 40
0
 40
0
 40
0.314697
 40
0.314697
 10
208.646
 20
-106.508
 30
0
 10
208.328
 20
-106.612
 30
0
  0
SPLINE
  5
A0B
330
A02
100
AcDbEntity
  8
polygon139_3
100
AcDbSpline
210
0
220
0
230
1
 70
8
 71
1
 72
4
 73
2
 74
0
 40
0
 40
0
 40
0.313982
 40
0.313982
 10
208.328
 20
-106.612
 30
0
 10
208.005
 20
-106.686
 30
0
  0
SPLINE
  5
A0C
330
A02
100
AcDbEntity
  8
polygon139_3
100
AcDbSpline
210
0
220
0
230
1
 70
8
 71
1
 72
4
 73
2
 74
0
 40
0
 40
0
 40
0.314186
 40
0.314186
 10
208.005
 20
-106.686
 30
0
 10
207.678
 20
-106.732
 30
0
  0
SPLINE
  5
A0D
330
A02
100
AcDbEntity
  8
polygon139_3
100
AcDbSpline
210
0
220
0
230
1
 70
8
 71
1
 72
4
 73
2
 74
0
 40
0
 40
0
 40
0.31327
 40
0.31327
 10
207.678
 20
-106.732
 30
0
 10
207.349
 20
-106.747
 30
0
  0
SPLINE
  5
A0E
330
A02
100
AcDbEntity
  8
polygon139_3
100
AcDbSpline
210
0
220
0
230
1
 70
8
 71
1
 72
4
 73
2
 74
0
 40
0
 40
0
 40
192.501
 40
192.501
 10
207.349
 20
-106.747
 30
0
 10
5.27076
 20
-106.747
 30
0
  0
SPLINE
  5
A0F
330
A02
100
AcDbEntity
  8
polygon139_3
100
AcDbSpline
210
0
220
0
230
1
 70
8
 71
1
 72
4
 73
2
 74
0
 40
0
 40
0
 40
0.314269
 40
0.314269
 10
5.27076
 20
-106.747
 30
0
 10
4.94114
 20
-106.732
 30
0
  0
SPLINE
  5
A10
330
A02
100
AcDbEntity
  8
polygon139_3
100
AcDbSpline
210
0
220
0
230
1
 70
8
 71
1
 72
4
 73
2
 74
0
 40
0
 40
0
 40
0.314186
 40
0.314186
 10
4.94114
 20
-106.732
 30
0
 10
4.61362
 20
-106.686
 30
0
  0
SPLINE
  5
A11
330
A02
100
AcDbEntity
  8
polygon139_3
100
AcDbSpline
210
0
220
0
230
1
 70
8
 71
1
 72
4
 73
2
 74
0
 40
0
 40
0
 40
0.313982
 40
0.313982
 10
4.61362
 20
-106.686
 30
0
 10
4.29029
 20
-106.612
 30
0
  0
SPLINE
  5
A12
330
A02
100
AcDbEntity
  8
polygon139_3
100
AcDbSpline
210
0
220
0
230
1
 70
8
 71
1
 72
4
 73
2
 74
0
 40
0
 40
0
 40
0.314697
 40
0.314697
 10
4.29029
 20
-106.612
 30
0
 10
3.97222
 20
-106.508
 30
0
  0
SPLINE
  5
A13
330
A02
100
AcDbEntity
  8
polygon139_3
100
AcDbSpline
210
0
220
0
230
1
 70
8
 71
1
 72
4
 73
2
 74
0
 40
0
 40
0
 40
0.313555
 40
0.313555
 10
3.97222
 20
-106.508
 30
0
 10
3.66359
 20
-106.375
 30
0
  0
SPLINE
  5
A14
330
A02
100
AcDbEntity
  8
polygon139_3
100
AcDbSpline
210
0
220
0
230
1
 70
8
 71
1
 72
4
 73
2
 74
0
 40
0
 40
0
 40
0.313665
 40
0.313665
 10
3.66359
 20
-106.375
 30
0
 10
3.36441
 20
-106.214
 30
0
  0
SPLINE
  5
A15
330
A02
100
AcDbEntity
  8
polygon139_3
100
AcDbSpline
210
0
220
0
230
1
 70
8
 71
1
 72
4
 73
2
 74
0
 40
0
 40
0
 40
0.314312
 40
0.314312
 10
3.36441
 20
-106.214
 30
0
 10
3.07678
 20
-106.026
 30
0
  0
SPLINE
  5
A16
330
A02
100
AcDbEntity
  8
polygon139_3
100
AcDbSpline
210
0
220
0
230
1
 70
8
 71
1
 72
4
 73
2
 74
0
 40
0
 40
0
 40
0.314516
 40
0.314516
 10
3.07678
 20
-106.026
 30
0
 10
2.80175
 20
-105.814
 30
0
  0
SPLINE
  5
A17
330
A02
100
AcDbEntity
  8
polygon139_3
100
AcDbSpline
210
0
220
0
230
1
 70
8
 71
1
 72
4
 73
2
 74
0
 40
0
 40
0
 40
0.313912
 40
0.313912
 10
2.80175
 20
-105.814
 30
0
 10
2.54351
 20
-105.575
 30
0
  0
SPLINE
  5
A18
330
A02
100
AcDbEntity
  8
polygon139_3
100
AcDbSpline
210
0
220
0
230
1
 70
8
 71
1
 72
4
 73
2
 74
0
 40
0
 40
0
 40
0.314213
 40
0.314213
 10
2.54351
 20
-105.575
 30
0
 10
2.30101
 20
-105.315
 30
0
  0
SPLINE
  5
A19
330
A02
100
AcDbEntity
  8
polygon139_3
100
AcDbSpline
210
0
220
0
230
1
 70
8
 71
1
 72
4
 73
2
 74
0
 40
0
 40
0
 40
0.314213
 40
0.314213
 10
2.30101
 20
-105.315
 30
0
 10
2.07742
 20
-105.032
 30
0
  0
SPLINE
  5
A1A
330
A02
100
AcDbEntity
  8
polygon139_3
100
AcDbSpline
210
0
220
0
230
1
 70
8
 71
1
 72
4
 73
2
 74
0
 40
0
 40
0
 40
0.313912
 40
0.313912
 10
2.07742
 20
-105.032
 30
0
 10
1.87272
 20
-104.732
 30
0
  0
SPLINE
  5
A1B
330
A02
100
AcDbEntity
  8
polygon139_3
100
AcDbSpline
210
0
220
0
230
1
 70
8
 71
1
 72
4
 73
2
 74
0
 40
0
 40
0
 40
0.314516
 40
0.314516
 10
1.87272
 20
-104.732
 30
0
 10
1.69006
 20
-104.411
 30
0
  0
SPLINE
  5
A1C
330
A02
100
AcDbEntity
  8
polygon139_3
100
AcDbSpline
210
0
220
0
230
1
 70
8
 71
1
 72
4
 73
2
 74
0
 40
0
 40
0
 40
0.314312
 40
0.314312
 10
1.69006
 20
-104.411
 30
0
 10
1.5284
 20
-104.077
 30
0
  0
SPLINE
  5
A1D
330
A02
100
AcDbEntity
  8
polygon139_3
100
AcDbSpline
210
0
220
0
230
1
 70
8
 71
1
 72
4
 73
2
 74
0
 40
0
 40
0
 40
0.313665
 40
0.313665
 10
1.5284
 20
-104.077
 30
0
 10
1.39088
 20
-103.728
 30
0
  0
SPLINE
  5
A1E
330
A02
100
AcDbEntity
  8
polygon139_3
100
AcDbSpline
210
0
220
0
230
1
 70
8
 71
1
 72
4
 73
2
 74
0
 40
0
 40
0
 40
0.313555
 40
0.313555
 10
1.39088
 20
-103.728
 30
0
 10
1.27646
 20
-103.369
 30
0
  0
SPLINE
  5
A1F
330
A02
100
AcDbEntity
  8
polygon139_3
100
AcDbSpline
210
0
220
0
230
1
 70
8
 71
1
 72
4
 73
2
 74
0
 40
0
 40
0
 40
0.314697
 40
0.314697
 10
1.27646
 20
-103.369
 30
0
 10
1.18723
 20
-102.998
 30
0
  0
SPLINE
  5
A20
330
A02
100
AcDbEntity
  8
polygon139_3
100
AcDbSpline
210
0
220
0
230
1
 70
8
 71
1
 72
4
 73
2
 74
0
 40
0
 40
0
 40
0.313982
 40
0.313982
 10
1.18723
 20
-102.998
 30
0
 10
1.12319
 20
-102.622
 30
0
  0
SPLINE
  5
A21
330
A02
100
AcDbEntity
  8
polygon139_3
100
AcDbSpline
210
0
220
0
230
1
 70
8
 71
1
 72
4
 73
2
 74
0
 40
0
 40
0
 40
0.314186
 40
0.314186
 10
1.12319
 20
-102.622
 30
0
 10
1.08435
 20
-102.241
 30
0
  0
SPLINE
  5
A22
330
A02
100
AcDbEntity
  8
polygon139_3
100
AcDbSpline
210
0
220
0
230
1
 70
8
 71
1
 72
4
 73
2
 74
0
 40
0
 40
0
 40
0.314269
 40
0.314269
 10
1.08435
 20
-102.241
 30
0
 10
1.07071
 20
-101.857
 30
0
  0
SPLINE
  5
A23
330
A02
100
AcDbEntity
  8
polygon139_3
100
AcDbSpline
210
0
220
0
230
1
 70
8
 71
1
 72
4
 73
2
 74
0
 40
0
 40
0
 40
78.2
 40
78.2
 10
1.07071
 20
-101.857
 30
0
 10
1.07176
 20
-6.26695
 30
0
  0
SPLINE
  5
A24
330
A02
100
AcDbEntity
  8
polygon139_3
100
AcDbSpline
210
0
220
0
230
1
 70
8
 71
1
 72
4
 73
2
 74
0
 40
0
 40
0
 40
0.314229
 40
0.314229
 10
1.07176
 20
-6.26695
 30
0
 10
1.08435
 20
-5.88312
 30
0
  0
SPLINE
  5
A25
330
A02
100
AcDbEntity
  8
polygon139_3
100
AcDbSpline
210
0
220
0
230
1
 70
8
 71
1
 72
4
 73
2
 74
0
 40
0
 40
0
 40
0.314186
 40
0.314186
 10
1.08435
 20
-5.88312
 30
0
 10
1.12319
 20
-5.50174
 30
0
  0
SPLINE
  5
A26
330
A02
100
AcDbEntity
  8
polygon139_3
100
AcDbSpline
210
0
220
0
230
1
 70
8
 71
1
 72
4
 73
2
 74
0
 40
0
 40
0
 40
0.313982
 40
0.313982
 10
1.12319
 20
-5.50174
 30
0
 10
1.18723
 20
-5.12525
 30
0
  0
SPLINE
  5
A27
330
A02
100
AcDbEntity
  8
polygon139_3
100
AcDbSpline
210
0
220
0
230
1
 70
8
 71
1
 72
4
 73
2
 74
0
 40
0
 40
0
 40
0.314697
 40
0.314697
 10
1.18723
 20
-5.12525
 30
0
 10
1.27646
 20
-4.75487
 30
0
  0
SPLINE
  5
A28
330
A02
100
AcDbEntity
  8
polygon139_3
100
AcDbSpline
210
0
220
0
230
1
 70
8
 71
1
 72
4
 73
2
 74
0
 40
0
 40
0
 40
0.313555
 40
0.313555
 10
1.27646
 20
-4.75487
 30
0
 10
1.39088
 20
-4.39549
 30
0
  0
SPLINE
  5
A29
330
A02
100
AcDbEntity
  8
polygon139_3
100
AcDbSpline
210
0
220
0
230
1
 70
8
 71
1
 72
4
 73
2
 74
0
 40
0
 40
0
 40
0.313665
 40
0.313665
 10
1.39088
 20
-4.39549
 30
0
 10
1.5284
 20
-4.04712
 30
0
  0
SPLINE
  5
A2A
330
A02
100
AcDbEntity
  8
polygon139_3
100
AcDbSpline
210
0
220
0
230
1
 70
8
 71
1
 72
4
 73
2
 74
0
 40
0
 40
0
 40
0.314312
 40
0.314312
 10
1.5284
 20
-4.04712
 30
0
 10
1.69006
 20
-3.71219
 30
0
  0
SPLINE
  5
A2B
330
A02
100
AcDbEntity
  8
polygon139_3
100
AcDbSpline
210
0
220
0
230
1
 70
8
 71
1
 72
4
 73
2
 74
0
 40
0
 40
0
 40
0.314516
 40
0.314516
 10
1.69006
 20
-3.71219
 30
0
 10
1.87272
 20
-3.39192
 30
0
  0
SPLINE
  5
A2C
330
A02
100
AcDbEntity
  8
polygon139_3
100
AcDbSpline
210
0
220
0
230
1
 70
8
 71
1
 72
4
 73
2
 74
0
 40
0
 40
0
 40
0.313912
 40
0.313912
 10
1.87272
 20
-3.39192
 30
0
 10
2.07742
 20
-3.09122
 30
0
  0
SPLINE
  5
A2D
330
A02
100
AcDbEntity
  8
polygon139_3
100
AcDbSpline
210
0
220
0
230
1
 70
8
 71
1
 72
4
 73
2
 74
0
 40
0
 40
0
 40
0.314213
 40
0.314213
 10
2.07742
 20
-3.09122
 30
0
 10
2.30101
 20
-2.80885
 30
0
  0
SPLINE
  5
A2E
330
A02
100
AcDbEntity
  8
polygon139_3
100
AcDbSpline
210
0
220
0
230
1
 70
8
 71
1
 72
4
 73
2
 74
0
 40
0
 40
0
 40
0.314213
 40
0.314213
 10
2.30101
 20
-2.80885
 30
0
 10
2.54351
 20
-2.54848
 30
0
  0
SPLINE
  5
A2F
330
A02
100
AcDbEntity
  8
polygon139_3
100
AcDbSpline
210
0
220
0
230
1
 70
8
 71
1
 72
4
 73
2
 74
0
 40
0
 40
0
 40
0.313912
 40
0.313912
 10
2.54351
 20
-2.54848
 30
0
 10
2.80175
 20
-2.31012
 30
0
  0
SPLINE
  5
A30
330
A02
100
AcDbEntity
  8
polygon139_3
100
AcDbSpline
210
0
220
0
230
1
 70
8
 71
1
 72
4
 73
2
 74
0
 40
0
 40
0
 40
0.314516
 40
0.314516
 10
2.80175
 20
-2.31012
 30
0
 10
3.07678
 20
-2.09743
 30
0
  0
SPLINE
  5
A31
330
A02
100
AcDbEntity
  8
polygon139_3
100
AcDbSpline
210
0
220
0
230
1
 70
8
 71
1
 72
4
 73
2
 74
0
 40
0
 40
0
 40
0.314312
 40
0.314312
 10
3.07678
 20
-2.09743
 30
0
 10
3.36441
 20
-1.90918
 30
0
  0
SPLINE
  5
A32
330
A02
100
AcDbEntity
  8
polygon139_3
100
AcDbSpline
210
0
220
0
230
1
 70
8
 71
1
 72
4
 73
2
 74
0
 40
0
 40
0
 40
0.313665
 40
0.313665
 10
3.36441
 20
-1.90918
 30
0
 10
3.66359
 20
-1.74905
 30
0
  0
SPLINE
  5
A33
330
A02
100
AcDbEntity
  8
polygon139_3
100
AcDbSpline
210
0
220
0
230
1
 70
8
 71
1
 72
4
 73
2
 74
0
 40
0
 40
0
 40
0.313555
 40
0.313555
 10
3.66359
 20
-1.74905
 30
0
 10
3.97222
 20
-1.61581
 30
0
  0
SPLINE
  5
A34
330
A02
100
AcDbEntity
  8
polygon139_3
100
AcDbSpline
210
0
220
0
230
1
 70
8
 71
1
 72
4
 73
2
 74
0
 40
0
 40
0
 40
0.314697
 40
0.314697
 10
3.97222
 20
-1.61581
 30
0
 10
4.29029
 20
-1.51191
 30
0
  0
SPLINE
  5
A35
330
A02
100
AcDbEntity
  8
polygon139_3
100
AcDbSpline
210
0
220
0
230
1
 70
8
 71
1
 72
4
 73
2
 74
0
 40
0
 40
0
 40
0.313982
 40
0.313982
 10
4.29029
 20
-1.51191
 30
0
 10
4.61362
 20
-1.43734
 30
0
  0
SPLINE
  5
A36
330
A02
100
AcDbEntity
  8
polygon139_3
100
AcDbSpline
210
0
220
0
230
1
 70
8
 71
1
 72
4
 73
2
 74
0
 40
0
 40
0
 40
0.314186
 40
0.314186
 10
4.61362
 20
-1.43734
 30
0
 10
4.94114
 20
-1.39212
 30
0
  0
SPLINE
  5
A37
330
A02
100
AcDbEntity
  8
polygon139_3
100
AcDbSpline
210
0
220
0
230
1
 70
8
 71
1
 72
4
 73
2
 74
0
 40
0
 40
0
 40
0.314269
 40
0.314269
 10
4.94114
 20
-1.39212
 30
0
 10
5.27076
 20
-1.37623
 30
0
  0
SPLINE
  5
A38
330
A02
100
AcDbEntity
  8
polygon139_3
100
AcDbSpline
210
0
220
0
230
1
 70
8
 71
1
 72
4
 73
2
 74
0
 40
0
 40
0
 40
192.501
 40
192.501
 10
5.27076
 20
-1.37623
 30
0
 10
207.349
 20
-1.37745
 30
0
  0
SPLINE
  5
A39
330
A02
100
AcDbEntity
  8
polygon139_3
100
AcDbSpline
210
0
220
0
230
1
 70
8
 71
1
 72
4
 73
2
 74
0
 40
0
 40
0
 40
0.31323
 40
0.31323
 10
207.349
 20
-1.37745
 30
0
 10
207.678
 20
-1.39212
 30
0
  0
SPLINE
  5
A3A
330
A02
100
AcDbEntity
  8
polygon139_3
100
AcDbSpline
210
0
220
0
230
1
 70
8
 71
1
 72
4
 73
2
 74
0
 40
0
 40
0
 40
0.314186
 40
0.314186
 10
207.678
 20
-1.39212
 30
0
 10
208.005
 20
-1.43734
 30
0
  0
SPLINE
  5
A3B
330
A02
100
AcDbEntity
  8
polygon139_3
100
AcDbSpline
210
0
220
0
230
1
 70
8
 71
1
 72
4
 73
2
 74
0
 40
0
 40
0
 40
0.313982
 40
0.313982
 10
208.005
 20
-1.43734
 30
0
 10
208.328
 20
-1.51191
 30
0
  0
SPLINE
  5
A3C
330
A02
100
AcDbEntity
  8
polygon139_3
100
AcDbSpline
210
0
220
0
230
1
 70
8
 71
1
 72
4
 73
2
 74
0
 40
0
 40
0
 40
0.314697
 40
0.314697
 10
208.328
 20
-1.51191
 30
0
 10
208.646
 20
-1.61581
 30
0
  0
SPLINE
  5
A3D
330
A02
100
AcDbEntity
  8
polygon139_3
100
AcDbSpline
210
0
220
0
230
1
 70
8
 71
1
 72
4
 73
2
 74
0
 40
0
 40
0
 40
0.313555
 40
0.313555
 10
208.646
 20
-1.61581
 30
0
 10
208.955
 20
-1.74905
 30
0
  0
SPLINE
  5
A3E
330
A02
100
AcDbEntity
  8
polygon139_3
100
AcDbSpline
210
0
220
0
230
1
 70
8
 71
1
 72
4
 73
2
 74
0
 40
0
 40
0
 40
0.313665
 40
0.313665
 10
208.955
 20
-1.74905
 30
0
 10
209.254
 20
-1.90918
 30
0
  0
SPLINE
  5
A3F
330
A02
100
AcDbEntity
  8
polygon139_3
100
AcDbSpline
210
0
220
0
230
1
 70
8
 71
1
 72
4
 73
2
 74
0
 40
0
 40
0
 40
0.314312
 40
0.314312
 10
209.254
 20
-1.90918
 30
0
 10
209.542
 20
-2.09743
 30
0
  0
SPLINE
  5
A40
330
A02
100
AcDbEntity
  8
polygon139_3
100
AcDbSpline
210
0
220
0
230
1
 70
8
 71
1
 72
4
 73
2
 74
0
 40
0
 40
0
 40
0.314516
 40
0.314516
 10
209.542
 20
-2.09743
 30
0
 10
209.817
 20
-2.31012
 30
0
  0
SPLINE
  5
A41
330
A02
100
AcDbEntity
  8
polygon139_3
100
AcDbSpline
210
0
220
0
230
1
 70
8
 71
1
 72
4
 73
2
 74
0
 40
0
 40
0
 40
0.313912
 40
0.313912
 10
209.817
 20
-2.31012
 30
0
 10
210.075
 20
-2.54848
 30
0
  0
SPLINE
  5
A42
330
A02
100
AcDbEntity
  8
polygon139_3
100
AcDbSpline
210
0
220
0
230
1
 70
8
 71
1
 72
4
 73
2
 74
0
 40
0
 40
0
 40
0.314213
 40
0.314213
 10
210.075
 20
-2.54848
 30
0
 10
210.318
 20
-2.80885
 30
0
  0
SPLINE
  5
A43
330
A02
100
AcDbEntity
  8
polygon139_3
100
AcDbSpline
210
0
220
0
230
1
 70
8
 71
1
 72
4
 73
2
 74
0
 40
0
 40
0
 40
0.314213
 40
0.314213
 10
210.318
 20
-2.80885
 30
0
 10
210.541
 20
-3.09122
 30
0
  0
SPLINE
  5
A44
330
A02
100
AcDbEntity
  8
polygon139_3
100
AcDbSpline
210
0
220
0
230
1
 70
8
 71
1
 72
4
 73
2
 74
0
 40
0
 40
0
 40
0.313912
 40
0.313912
 10
210.541
 20
-3.09122
 30
0
 10
210.746
 20
-3.39192
 30
0
  0
SPLINE
  5
A45
330
A02
100
AcDbEntity
  8
polygon139_3
100
AcDbSpline
210
0
220
0
230
1
 70
8
 71
1
 72
4
 73
2
 74
0
 40
0
 40
0
 40
0.314516
 40
0.314516
 10
210.746
 20
-3.39192
 30
0
 10
210.929
 20
-3.71219
 30
0
  0
SPLINE
  5
A46
330
A02
100
AcDbEntity
  8
polygon139_3
100
AcDbSpline
210
0
220
0
230
1
 70
8
 71
1
 72
4
 73
2
 74
0
 40
0
 40
0
 40
0.314312
 40
0.314312
 10
210.929
 20
-3.71219
 30
0
 10
211.09
 20
-4.04712
 30
0
  0
SPLINE
  5
A47
330
A02
100
AcDbEntity
  8
polygon139_3
100
AcDbSpline
210
0
220
0
230
1
 70
8
 71
1
 72
4
 73
2
 74
0
 40
0
 40
0
 40
0.313665
 40
0.313665
 10
211.09
 20
-4.04712
 30
0
 10
211.228
 20
-4.39549
 30
0
  0
SPLINE
  5
A48
330
A02
100
AcDbEntity
  8
polygon139_3
100
AcDbSpline
210
0
220
0
230
1
 70
8
 71
1
 72
4
 73
2
 74
0
 40
0
 40
0
 40
0.313555
 40
0.313555
 10
211.228
 20
-4.39549
 30
0
 10
211.342
 20
-4.75487
 30
0
  0
SPLINE
  5
A49
330
A02
100
AcDbEntity
  8
polygon139_3
100
AcDbSpline
210
0
220
0
230
1
 70
8
 71
1
 72
4
 73
2
 74
0
 40
0
 40
0
 40
0.314697
 40
0.314697
 10
211.342
 20
-4.75487
 30
0
 10
211.431
 20
-5.12525
 30
0
  0
SPLINE
  5
A4A
330
A02
100
AcDbEntity
  8
polygon139_3
100
AcDbSpline
210
0
220
0
230
1
 70
8
 71
1
 72
4
 73
2
 74
0
 40
0
 40
0
 40
0.313982
 40
0.313982
 10
211.431
 20
-5.12525
 30
0
 10
211.495
 20
-5.50174
 30
0
  0
SPLINE
  5
A4B
330
A02
100
AcDbEntity
  8
polygon139_3
100
AcDbSpline
210
0
220
0
230
1
 70
8
 71
1
 72
4
 73
2
 74
0
 40
0
 40
0
 40
0.314186
 40
0.314186
 10
211.495
 20
-5.50174
 30
0
 10
211.534
 20
-5.88312
 30
0
  0
SPLINE
  5
A4C
330
A02
100
AcDbEntity
  8
polygon139_3
100
AcDbSpline
210
0
220
0
230
1
 70
8
 71
1
 72
4
 73
2
 74
0
 40
0
 40
0
 40
0.314229
 40
0.314229
 10
211.534
 20
-5.88312
 30
0
 10
211.547
 20
-6.26695
 30
0
  0
SPLINE
  5
A4D
330
A02
100
AcDbEntity
  8
polygon139_3
100
AcDbSpline
210
0
220
0
230
1
 70
8
 71
1
 72
4
 73
2
 74
0
 40
0
 40
0
 40
78.201
 40
78.201
 10
211.547
 20
-6.26695
 30
0
 10
211.548
 20
-101.858
 30
0
  0
SPLINE
  5
A4E
330
A02
100
AcDbEntity
  8
polygon139_3
100
AcDbSpline
210
0
220
0
230
1
 70
8
 71
1
 72
4
 73
2
 74
0
 40
0
 40
0
 40
0.31327
 40
0.31327
 10
211.548
 20
-101.858
 30
0
 10
211.534
 20
-102.241
 30
0
  0
SPLINE
  5
A4F
330
A02
100
AcDbEntity
  8
polygon139_3
100
AcDbSpline
210
0
220
0
230
1
 70
8
 71
1
 72
4
 73
2
 74
0
 40
0
 40
0
 40
0.314186
 40
0.314186
 10
211.534
 20
-102.241
 30
0
 10
211.495
 20
-102.622
 30
0
  0
SPLINE
  5
A50
330
A02
100
AcDbEntity
  8
polygon139_3
100
AcDbSpline
210
0
220
0
230
1
 70
8
 71
1
 72
4
 73
2
 74
0
 40
0
 40
0
 40
0.313982
 40
0.313982
 10
211.495
 20
-102.622
 30
0
 10
211.431
 20
-102.998
 30
0
  0
SPLINE
  5
A51
330
A02
100
AcDbEntity
  8
polygon139_3
100
AcDbSpline
210
0
220
0
230
1
 70
8
 71
1
 72
4
 73
2
 74
0
 40
0
 40
0
 40
0.314697
 40
0.314697
 10
211.431
 20
-102.998
 30
0
 10
211.342
 20
-103.369
 30
0
  0
SPLINE
  5
A52
330
A02
100
AcDbEntity
  8
polygon139_3
100
AcDbSpline
210
0
220
0
230
1
 70
8
 71
1
 72
4
 73
2
 74
0
 40
0
 40
0
 40
0.313555
 40
0.313555
 10
211.342
 20
-103.369
 30
0
 10
211.228
 20
-103.728
 30
0
  0
SPLINE
  5
A53
330
A02
100
AcDbEntity
  8
polygon139_3
100
AcDbSpline
210
0
220
0
230
1
 70
8
 71
1
 72
4
 73
2
 74
0
 40
0
 40
0
 40
0.313665
 40
0.313665
 10
211.228
 20
-103.728
 30
0
 10
211.09
 20
-104.077
 30
0
  0
SPLINE
  5
A54
330
A02
100
AcDbEntity
  8
polygon139_3
100
AcDbSpline
210
0
220
0
230
1
 70
8
 71
1
 72
4
 73
2
 74
0
 40
0
 40
0
 40
0.314312
 40
0.314312
 10
211.09
 20
-104.077
 30
0
 10
210.929
 20
-104.411
 30
0
  0
SPLINE
  5
A55
330
A02
100
AcDbEntity
  8
polygon139_3
100
AcDbSpline
210
0
220
0
230
1
 70
8
 71
1
 72
4
 73
2
 74
0
 40
0
 40
0
 40
0.314516
 40
0.314516
 10
210.929
 20
-104.411
 30
0
 10
210.746
 20
-104.732
 30
0
  0
SPLINE
  5
A56
330
A02
100
AcDbEntity
  8
polygon139_3
100
AcDbSpline
210
0
220
0
230
1
 70
8
 71
1
 72
4
 73
2
 74
0
 40
0
 40
0
 40
0.313912
 40
0.313912
 10
210.746
 20
-104.732
 30
0
 10
210.541
 20
-105.032
 30
0
  0
SPLINE
  5
A57
330
A02
100
AcDbEntity
  8
polygon139_3
100
AcDbSpline
210
0
220
0
230
1
 70
8
 71
1
 72
4
 73
2
 74
0
 40
0
 40
0
 40
0.314213
 40
0.314213
 10
210.541
 20
-105.032
 30
0
 10
210.318
 20
-105.315
 30
0
  0
SPLINE
  5
A58
330
A02
100
AcDbEntity
  8
polygon139_3
100
AcDbSpline
210
0
220
0
230
1
 70
8
 71
1
 72
4
 73
2
 74
0
 40
0
 40
0
 40
0.314213
 40
0.314213
 10
210.318
 20
-105.315
 30
0
 10
210.075
 20
-105.575
 30
0
  0
SPLINE
  5
A59
330
A02
100
AcDbEntity
  8
polygon139_3
100
AcDbSpline
210
0
220
0
230
1
 70
8
 71
1
 72
4
 73
2
 74
0
 40
0
 40
0
 40
0.313912
 40
0.313912
 10
210.075
 20
-105.575
 30
0
 10
209.817
 20
-105.814
 30
0
  0
SPLINE
  5
A5A
330
A02
100
AcDbEntity
  8
polygon139_3
100
AcDbSpline
210
0
220
0
230
1
 70
8
 71
1
 72
4
 73
2
 74
0
 40
0
 40
0
 40
0.314516
 40
0.314516
 10
209.817
 20
-105.814
 30
0
 10
209.542
 20
-106.026
 30
0
  0
SPLINE
  5
A5B
330
A02
100
AcDbEntity
  8
polygon139_3
100
AcDbSpline
210
0
220
0
230
1
 70
8
 71
1
 72
4
 73
2
 74
0
 40
0
 40
0
 40
0.314312
 40
0.314312
 10
209.542
 20
-106.026
 30
0
 10
209.254
 20
-106.214
 30
0
  0
SPLINE
  5
A5C
330
A02
100
AcDbEntity
  8
polygon141
100
AcDbSpline
210
0
220
0
230
1
 70
8
 71
1
 72
4
 73
2
 74
0
 40
0
 40
0
 40
0.469141
 40
0.469141
 10
202.825
 20
-96.4838
 30
0
 10
202.407
 20
-96.2708
 30
0
  0
SPLINE
  5
A5D
330
A02
100
AcDbEntity
  8
polygon141
100
AcDbSpline
210
0
220
0
230
1
 70
8
 71
1
 72
4
 73
2
 74
0
 40
0
 40
0
 40
0.46872
 40
0.46872
 10
202.407
 20
-96.2708
 30
0
 10
201.944
 20
-96.1978
 30
0
  0
SPLINE
  5
A5E
330
A02
100
AcDbEntity
  8
polygon141
100
AcDbSpline
210
0
220
0
230
1
 70
8
 71
1
 72
4
 73
2
 74
0
 40
0
 40
0
 40
0.469707
 40
0.469707
 10
201.944
 20
-96.1978
 30
0
 10
201.48
 20
-96.2708
 30
0
  0
SPLINE
  5
A5F
330
A02
100
AcDbEntity
  8
polygon141
100
AcDbSpline
210
0
220
0
230
1
 70
8
 71
1
 72
4
 73
2
 74
0
 40
0
 40
0
 40
0.469141
 40
0.469141
 10
201.48
 20
-96.2708
 30
0
 10
201.062
 20
-96.4838
 30
0
  0
SPLINE
  5
A60
330
A02
100
AcDbEntity
  8
polygon141
100
AcDbSpline
210
0
220
0
230
1
 70
8
 71
1
 72
4
 73
2
 74
0
 40
0
 40
0
 40
0.469519
 40
0.469519
 10
201.062
 20
-96.4838
 30
0
 10
200.73
 20
-96.8158
 30
0
  0
SPLINE
  5
A61
330
A02
100
AcDbEntity
  8
polygon141
100
AcDbSpline
210
0
220
0
230
1
 70
8
 71
1
 72
4
 73
2
 74
0
 40
0
 40
0
 40
0.469141
 40
0.469141
 10
200.73
 20
-96.8158
 30
0
 10
200.517
 20
-97.2338
 30
0
  0
SPLINE
  5
A62
330
A02
100
AcDbEntity
  8
polygon141
100
AcDbSpline
210
0
220
0
230
1
 70
8
 71
1
 72
4
 73
2
 74
0
 40
0
 40
0
 40
0.469707
 40
0.469707
 10
200.517
 20
-97.2338
 30
0
 10
200.444
 20
-97.6978
 30
0
  0
SPLINE
  5
A63
330
A02
100
AcDbEntity
  8
polygon141
100
AcDbSpline
210
0
220
0
230
1
 70
8
 71
1
 72
4
 73
2
 74
0
 40
0
 40
0
 40
0.46872
 40
0.46872
 10
200.444
 20
-97.6978
 30
0
 10
200.517
 20
-98.1608
 30
0
  0
SPLINE
  5
A64
330
A02
100
AcDbEntity
  8
polygon141
100
AcDbSpline
210
0
220
0
230
1
 70
8
 71
1
 72
4
 73
2
 74
0
 40
0
 40
0
 40
0.469141
 40
0.469141
 10
200.517
 20
-98.1608
 30
0
 10
200.73
 20
-98.5788
 30
0
  0
SPLINE
  5
A65
330
A02
100
AcDbEntity
  8
polygon141
100
AcDbSpline
210
0
220
0
230
1
 70
8
 71
1
 72
4
 73
2
 74
0
 40
0
 40
0
 40
0.469519
 40
0.469519
 10
200.73
 20
-98.5788
 30
0
 10
201.062
 20
-98.9108
 30
0
  0
SPLINE
  5
A66
330
A02
100
AcDbEntity
  8
polygon141
100
AcDbSpline
210
0
220
0
230
1
 70
8
 71
1
 72
4
 73
2
 74
0
 40
0
 40
0
 40
0.469141
 40
0.469141
 10
201.062
 20
-98.9108
 30
0
 10
201.48
 20
-99.1238
 30
0
  0
SPLINE
  5
A67
330
A02
100
AcDbEntity
  8
polygon141
100
AcDbSpline
210
0
220
0
230
1
 70
8
 71
1
 72
4
 73
2
 74
0
 40
0
 40
0
 40
0.469864
 40
0.469864
 10
201.48
 20
-99.1238
 30
0
 10
201.944
 20
-99.1978
 30
0
  0
SPLINE
  5
A68
330
A02
100
AcDbEntity
  8
polygon141
100
AcDbSpline
210
0
220
0
230
1
 70
8
 71
1
 72
4
 73
2
 74
0
 40
0
 40
0
 40
0.468876
 40
0.468876
 10
201.944
 20
-99.1978
 30
0
 10
202.407
 20
-99.1238
 30
0
  0
SPLINE
  5
A69
330
A02
100
AcDbEntity
  8
polygon141
100
AcDbSpline
210
0
220
0
230
1
 70
8
 71
1
 72
4
 73
2
 74
0
 40
0
 40
0
 40
0.469141
 40
0.469141
 10
202.407
 20
-99.1238
 30
0
 10
202.825
 20
-98.9108
 30
0
  0
SPLINE
  5
A6A
330
A02
100
AcDbEntity
  8
polygon141
100
AcDbSpline
210
0
220
0
230
1
 70
8
 71
1
 72
4
 73
2
 74
0
 40
0
 40
0
 40
0.469519
 40
0.469519
 10
202.825
 20
-98.9108
 30
0
 10
203.157
 20
-98.5788
 30
0
  0
SPLINE
  5
A6B
330
A02
100
AcDbEntity
  8
polygon141
100
AcDbSpline
210
0
220
0
230
1
 70
8
 71
1
 72
4
 73
2
 74
0
 40
0
 40
0
 40
0.469141
 40
0.469141
 10
203.157
 20
-98.5788
 30
0
 10
203.37
 20
-98.1608
 30
0
  0
SPLINE
  5
A6C
330
A02
100
AcDbEntity
  8
polygon141
100
AcDbSpline
210
0
220
0
230
1
 70
8
 71
1
 72
4
 73
2
 74
0
 40
0
 40
0
 40
0.468876
 40
0.468876
 10
203.37
 20
-98.1608
 30
0
 10
203.444
 20
-97.6978
 30
0
  0
SPLINE
  5
A6D
330
A02
100
AcDbEntity
  8
polygon141
100
AcDbSpline
210
0
220
0
230
1
 70
8
 71
1
 72
4
 73
2
 74
0
 40
0
 40
0
 40
0.469864
 40
0.469864
 10
203.444
 20
-97.6978
 30
0
 10
203.37
 20
-97.2338
 30
0
  0
SPLINE
  5
A6E
330
A02
100
AcDbEntity
  8
polygon141
100
AcDbSpline
210
0
220
0
230
1
 70
8
 71
1
 72
4
 73
2
 74
0
 40
0
 40
0
 40
0.469141
 40
0.469141
 10
203.37
 20
-97.2338
 30
0
 10
203.157
 20
-96.8158
 30
0
  0
SPLINE
  5
A6F
330
A02
100
AcDbEntity
  8
polygon141
100
AcDbSpline
210
0
220
0
230
1
 70
8
 71
1
 72
4
 73
2
 74
0
 40
0
 40
0
 40
0.469519
 40
0.469519
 10
203.157
 20
-96.8158
 30
0
 10
202.825
 20
-96.4838
 30
0
  0
SPLINE
  5
A70
330
A02
100
AcDbEntity
  8
polygon143
100
AcDbSpline
210
0
220
0
230
1
 70
8
 71
1
 72
4
 73
2
 74
0
 40
0
 40
0
 40
0.46872
 40
0.46872
 10
107.736
 20
-98.1608
 30
0
 10
107.809
 20
-97.6978
 30
0
  0
SPLINE
  5
A71
330
A02
100
AcDbEntity
  8
polygon143
100
AcDbSpline
210
0
220
0
230
1
 70
8
 71
1
 72
4
 73
2
 74
0
 40
0
 40
0
 40
0.469707
 40
0.469707
 10
107.809
 20
-97.6978
 30
0
 10
107.736
 20
-97.2338
 30
0
  0
SPLINE
  5
A72
330
A02
100
AcDbEntity
  8
polygon143
100
AcDbSpline
210
0
220
0
230
1
 70
8
 71
1
 72
4
 73
2
 74
0
 40
0
 40
0
 40
0.469141
 40
0.469141
 10
107.736
 20
-97.2338
 30
0
 10
107.523
 20
-96.8158
 30
0
  0
SPLINE
  5
A73
330
A02
100
AcDbEntity
  8
polygon143
100
AcDbSpline
210
0
220
0
230
1
 70
8
 71
1
 72
4
 73
2
 74
0
 40
0
 40
0
 40
0.469519
 40
0.469519
 10
107.523
 20
-96.8158
 30
0
 10
107.191
 20
-96.4838
 30
0
  0
SPLINE
  5
A74
330
A02
100
AcDbEntity
  8
polygon143
100
AcDbSpline
210
0
220
0
230
1
 70
8
 71
1
 72
4
 73
2
 74
0
 40
0
 40
0
 40
0.469141
 40
0.469141
 10
107.191
 20
-96.4838
 30
0
 10
106.773
 20
-96.2708
 30
0
  0
SPLINE
  5
A75
330
A02
100
AcDbEntity
  8
polygon143
100
AcDbSpline
210
0
220
0
230
1
 70
8
 71
1
 72
4
 73
2
 74
0
 40
0
 40
0
 40
0.469707
 40
0.469707
 10
106.773
 20
-96.2708
 30
0
 10
106.309
 20
-96.1978
 30
0
  0
SPLINE
  5
A76
330
A02
100
AcDbEntity
  8
polygon143
100
AcDbSpline
210
0
220
0
230
1
 70
8
 71
1
 72
4
 73
2
 74
0
 40
0
 40
0
 40
0.469707
 40
0.469707
 10
106.309
 20
-96.1978
 30
0
 10
105.845
 20
-96.2708
 30
0
  0
SPLINE
  5
A77
330
A02
100
AcDbEntity
  8
polygon143
100
AcDbSpline
210
0
220
0
230
1
 70
8
 71
1
 72
4
 73
2
 74
0
 40
0
 40
0
 40
0.469141
 40
0.469141
 10
105.845
 20
-96.2708
 30
0
 10
105.427
 20
-96.4838
 30
0
  0
SPLINE
  5
A78
330
A02
100
AcDbEntity
  8
polygon143
100
AcDbSpline
210
0
220
0
230
1
 70
8
 71
1
 72
4
 73
2
 74
0
 40
0
 40
0
 40
0.469519
 40
0.469519
 10
105.427
 20
-96.4838
 30
0
 10
105.095
 20
-96.8158
 30
0
  0
SPLINE
  5
A79
330
A02
100
AcDbEntity
  8
polygon143
100
AcDbSpline
210
0
220
0
230
1
 70
8
 71
1
 72
4
 73
2
 74
0
 40
0
 40
0
 40
0.469141
 40
0.469141
 10
105.095
 20
-96.8158
 30
0
 10
104.882
 20
-97.2338
 30
0
  0
SPLINE
  5
A7A
330
A02
100
AcDbEntity
  8
polygon143
100
AcDbSpline
210
0
220
0
230
1
 70
8
 71
1
 72
4
 73
2
 74
0
 40
0
 40
0
 40
0.469707
 40
0.469707
 10
104.882
 20
-97.2338
 30
0
 10
104.809
 20
-97.6978
 30
0
  0
SPLINE
  5
A7B
330
A02
100
AcDbEntity
  8
polygon143
100
AcDbSpline
210
0
220
0
230
1
 70
8
 71
1
 72
4
 73
2
 74
0
 40
0
 40
0
 40
0.46872
 40
0.46872
 10
104.809
 20
-97.6978
 30
0
 10
104.882
 20
-98.1608
 30
0
  0
SPLINE
  5
A7C
330
A02
100
AcDbEntity
  8
polygon143
100
AcDbSpline
210
0
220
0
230
1
 70
8
 71
1
 72
4
 73
2
 74
0
 40
0
 40
0
 40
0.469141
 40
0.469141
 10
104.882
 20
-98.1608
 30
0
 10
105.095
 20
-98.5788
 30
0
  0
SPLINE
  5
A7D
330
A02
100
AcDbEntity
  8
polygon143
100
AcDbSpline
210
0
220
0
230
1
 70
8
 71
1
 72
4
 73
2
 74
0
 40
0
 40
0
 40
0.469519
 40
0.469519
 10
105.095
 20
-98.5788
 30
0
 10
105.427
 20
-98.9108
 30
0
  0
SPLINE
  5
A7E
330
A02
100
AcDbEntity
  8
polygon143
100
AcDbSpline
210
0
220
0
230
1
 70
8
 71
1
 72
4
 73
2
 74
0
 40
0
 40
0
 40
0.469141
 40
0.469141
 10
105.427
 20
-98.9108
 30
0
 10
105.845
 20
-99.1238
 30
0
  0
SPLINE
  5
A7F
330
A02
100
AcDbEntity
  8
polygon143
100
AcDbSpline
210
0
220
0
230
1
 70
8
 71
1
 72
4
 73
2
 74
0
 40
0
 40
0
 40
0.469864
 40
0.469864
 10
105.845
 20
-99.1238
 30
0
 10
106.309
 20
-99.1978
 30
0
  0
SPLINE
  5
A80
330
A02
100
AcDbEntity
  8
polygon143
100
AcDbSpline
210
0
220
0
230
1
 70
8
 71
1
 72
4
 73
2
 74
0
 40
0
 40
0
 40
0.469864
 40
0.469864
 10
106.309
 20
-99.1978
 30
0
 10
106.773
 20
-99.1238
 30
0
  0
SPLINE
  5
A81
330
A02
100
AcDbEntity
  8
polygon143
100
AcDbSpline
210
0
220
0
230
1
 70
8
 71
1
 72
4
 73
2
 74
0
 40
0
 40
0
 40
0.469141
 40
0.469141
 10
106.773
 20
-99.1238
 30
0
 10
107.191
 20
-98.9108
 30
0
  0
SPLINE
  5
A82
330
A02
100
AcDbEntity
  8
polygon143
100
AcDbSpline
210
0
220
0
230
1
 70
8
 71
1
 72
4
 73
2
 74
0
 40
0
 40
0
 40
0.469519
 40
0.469519
 10
107.191
 20
-98.9108
 30
0
 10
107.523
 20
-98.5788
 30
0
  0
SPLINE
  5
A83
330
A02
100
AcDbEntity
  8
polygon143
100
AcDbSpline
210
0
220
0
230
1
 70
8
 71
1
 72
4
 73
2
 74
0
 40
0
 40
0
 40
0.469141
 40
0.469141
 10
107.523
 20
-98.5788
 30
0
 10
107.736
 20
-98.1608
 30
0
  0
SPLINE
  5
A84
330
A02
100
AcDbEntity
  8
polygon145
100
AcDbSpline
210
0
220
0
230
1
 70
8
 71
1
 72
4
 73
2
 74
0
 40
0
 40
0
 40
0.469141
 40
0.469141
 10
11.557
 20
-96.4838
 30
0
 10
11.139
 20
-96.2708
 30
0
  0
SPLINE
  5
A85
330
A02
100
AcDbEntity
  8
polygon145
100
AcDbSpline
210
0
220
0
230
1
 70
8
 71
1
 72
4
 73
2
 74
0
 40
0
 40
0
 40
0.46872
 40
0.46872
 10
11.139
 20
-96.2708
 30
0
 10
10.676
 20
-96.1978
 30
0
  0
SPLINE
  5
A86
330
A02
100
AcDbEntity
  8
polygon145
100
AcDbSpline
210
0
220
0
230
1
 70
8
 71
1
 72
4
 73
2
 74
0
 40
0
 40
0
 40
0.469707
 40
0.469707
 10
10.676
 20
-96.1978
 30
0
 10
10.212
 20
-96.2708
 30
0
  0
SPLINE
  5
A87
330
A02
100
AcDbEntity
  8
polygon145
100
AcDbSpline
210
0
220
0
230
1
 70
8
 71
1
 72
4
 73
2
 74
0
 40
0
 40
0
 40
0.469141
 40
0.469141
 10
10.212
 20
-96.2708
 30
0
 10
9.794
 20
-96.4838
 30
0
  0
SPLINE
  5
A88
330
A02
100
AcDbEntity
  8
polygon145
100
AcDbSpline
210
0
220
0
230
1
 70
8
 71
1
 72
4
 73
2
 74
0
 40
0
 40
0
 40
0.469519
 40
0.469519
 10
9.794
 20
-96.4838
 30
0
 10
9.462
 20
-96.8158
 30
0
  0
SPLINE
  5
A89
330
A02
100
AcDbEntity
  8
polygon145
100
AcDbSpline
210
0
220
0
230
1
 70
8
 71
1
 72
4
 73
2
 74
0
 40
0
 40
0
 40
0.469141
 40
0.469141
 10
9.462
 20
-96.8158
 30
0
 10
9.249
 20
-97.2338
 30
0
  0
SPLINE
  5
A8A
330
A02
100
AcDbEntity
  8
polygon145
100
AcDbSpline
210
0
220
0
230
1
 70
8
 71
1
 72
4
 73
2
 74
0
 40
0
 40
0
 40
0.469864
 40
0.469864
 10
9.249
 20
-97.2338
 30
0
 10
9.175
 20
-97.6978
 30
0
  0
SPLINE
  5
A8B
330
A02
100
AcDbEntity
  8
polygon145
100
AcDbSpline
210
0
220
0
230
1
 70
8
 71
1
 72
4
 73
2
 74
0
 40
0
 40
0
 40
0.468876
 40
0.468876
 10
9.175
 20
-97.6978
 30
0
 10
9.249
 20
-98.1608
 30
0
  0
SPLINE
  5
A8C
330
A02
100
AcDbEntity
  8
polygon145
100
AcDbSpline
210
0
220
0
230
1
 70
8
 71
1
 72
4
 73
2
 74
0
 40
0
 40
0
 40
0.469141
 40
0.469141
 10
9.249
 20
-98.1608
 30
0
 10
9.462
 20
-98.5788
 30
0
  0
SPLINE
  5
A8D
330
A02
100
AcDbEntity
  8
polygon145
100
AcDbSpline
210
0
220
0
230
1
 70
8
 71
1
 72
4
 73
2
 74
0
 40
0
 40
0
 40
0.469519
 40
0.469519
 10
9.462
 20
-98.5788
 30
0
 10
9.794
 20
-98.9108
 30
0
  0
SPLINE
  5
A8E
330
A02
100
AcDbEntity
  8
polygon145
100
AcDbSpline
210
0
220
0
230
1
 70
8
 71
1
 72
4
 73
2
 74
0
 40
0
 40
0
 40
0.469141
 40
0.469141
 10
9.794
 20
-98.9108
 30
0
 10
10.212
 20
-99.1238
 30
0
  0
SPLINE
  5
A8F
330
A02
100
AcDbEntity
  8
polygon145
100
AcDbSpline
210
0
220
0
230
1
 70
8
 71
1
 72
4
 73
2
 74
0
 40
0
 40
0
 40
0.469864
 40
0.469864
 10
10.212
 20
-99.1238
 30
0
 10
10.676
 20
-99.1978
 30
0
  0
SPLINE
  5
A90
330
A02
100
AcDbEntity
  8
polygon145
100
AcDbSpline
210
0
220
0
230
1
 70
8
 71
1
 72
4
 73
2
 74
0
 40
0
 40
0
 40
0.468876
 40
0.468876
 10
10.676
 20
-99.1978
 30
0
 10
11.139
 20
-99.1238
 30
0
  0
SPLINE
  5
A91
330
A02
100
AcDbEntity
  8
polygon145
100
AcDbSpline
210
0
220
0
230
1
 70
8
 71
1
 72
4
 73
2
 74
0
 40
0
 40
0
 40
0.469141
 40
0.469141
 10
11.139
 20
-99.1238
 30
0
 10
11.557
 20
-98.9108
 30
0
  0
SPLINE
  5
A92
330
A02
100
AcDbEntity
  8
polygon145
100
AcDbSpline
210
0
220
0
230
1
 70
8
 71
1
 72
4
 73
2
 74
0
 40
0
 40
0
 40
0.469519
 40
0.469519
 10
11.557
 20
-98.9108
 30
0
 10
11.889
 20
-98.5788
 30
0
  0
SPLINE
  5
A93
330
A02
100
AcDbEntity
  8
polygon145
100
AcDbSpline
210
0
220
0
230
1
 70
8
 71
1
 72
4
 73
2
 74
0
 40
0
 40
0
 40
0.469141
 40
0.469141
 10
11.889
 20
-98.5788
 30
0
 10
12.102
 20
-98.1608
 30
0
  0
SPLINE
  5
A94
330
A02
100
AcDbEntity
  8
polygon145
100
AcDbSpline
210
0
220
0
230
1
 70
8
 71
1
 72
4
 73
2
 74
0
 40
0
 40
0
 40
0.468876
 40
0.468876
 10
12.102
 20
-98.1608
 30
0
 10
12.176
 20
-97.6978
 30
0
  0
SPLINE
  5
A95
330
A02
100
AcDbEntity
  8
polygon145
100
AcDbSpline
210
0
220
0
230
1
 70
8
 71
1
 72
4
 73
2
 74
0
 40
0
 40
0
 40
0.469864
 40
0.469864
 10
12.176
 20
-97.6978
 30
0
 10
12.102
 20
-97.2338
 30
0
  0
SPLINE
  5
A96
330
A02
100
AcDbEntity
  8
polygon145
100
AcDbSpline
210
0
220
0
230
1
 70
8
 71
1
 72
4
 73
2
 74
0
 40
0
 40
0
 40
0.469141
 40
0.469141
 10
12.102
 20
-97.2338
 30
0
 10
11.889
 20
-96.8158
 30
0
  0
SPLINE
  5
A97
330
A02
100
AcDbEntity
  8
polygon145
100
AcDbSpline
210
0
220
0
230
1
 70
8
 71
1
 72
4
 73
2
 74
0
 40
0
 40
0
 40
0.469519
 40
0.469519
 10
11.889
 20
-96.8158
 30
0
 10
11.557
 20
-96.4838
 30
0
  0
SPLINE
  5
A98
330
A02
100
AcDbEntity
  8
polygon141_4
100
AcDbSpline
210
0
220
0
230
1
 70
8
 71
1
 72
4
 73
2
 74
0
 40
0
 40
0
 40
0.469519
 40
0.469519
 10
201.062
 20
-102.834
 30
0
 10
200.73
 20
-103.166
 30
0
  0
SPLINE
  5
A99
330
A02
100
AcDbEntity
  8
polygon141_4
100
AcDbSpline
210
0
220
0
230
1
 70
8
 71
1
 72
4
 73
2
 74
0
 40
0
 40
0
 40
0.469141
 40
0.469141
 10
200.73
 20
-103.166
 30
0
 10
200.517
 20
-103.584
 30
0
  0
SPLINE
  5
A9A
330
A02
100
AcDbEntity
  8
polygon141_4
100
AcDbSpline
210
0
220
0
230
1
 70
8
 71
1
 72
4
 73
2
 74
0
 40
0
 40
0
 40
0.469707
 40
0.469707
 10
200.517
 20
-103.584
 30
0
 10
200.444
 20
-104.048
 30
0
  0
SPLINE
  5
A9B
330
A02
100
AcDbEntity
  8
polygon141_4
100
AcDbSpline
210
0
220
0
230
1
 70
8
 71
1
 72
4
 73
2
 74
0
 40
0
 40
0
 40
0.46872
 40
0.46872
 10
200.444
 20
-104.048
 30
0
 10
200.517
 20
-104.511
 30
0
  0
SPLINE
  5
A9C
330
A02
100
AcDbEntity
  8
polygon141_4
100
AcDbSpline
210
0
220
0
230
1
 70
8
 71
1
 72
4
 73
2
 74
0
 40
0
 40
0
 40
0.469141
 40
0.469141
 10
200.517
 20
-104.511
 30
0
 10
200.73
 20
-104.929
 30
0
  0
SPLINE
  5
A9D
330
A02
100
AcDbEntity
  8
polygon141_4
100
AcDbSpline
210
0
220
0
230
1
 70
8
 71
1
 72
4
 73
2
 74
0
 40
0
 40
0
 40
0.469519
 40
0.469519
 10
200.73
 20
-104.929
 30
0
 10
201.062
 20
-105.261
 30
0
  0
SPLINE
  5
A9E
330
A02
100
AcDbEntity
  8
polygon141_4
100
AcDbSpline
210
0
220
0
230
1
 70
8
 71
1
 72
4
 73
2
 74
0
 40
0
 40
0
 40
0.469141
 40
0.469141
 10
201.062
 20
-105.261
 30
0
 10
201.48
 20
-105.474
 30
0
  0
SPLINE
  5
A9F
330
A02
100
AcDbEntity
  8
polygon141_4
100
AcDbSpline
210
0
220
0
230
1
 70
8
 71
1
 72
4
 73
2
 74
0
 40
0
 40
0
 40
0.469864
 40
0.469864
 10
201.48
 20
-105.474
 30
0
 10
201.944
 20
-105.548
 30
0
  0
SPLINE
  5
AA0
330
A02
100
AcDbEntity
  8
polygon141_4
100
AcDbSpline
210
0
220
0
230
1
 70
8
 71
1
 72
4
 73
2
 74
0
 40
0
 40
0
 40
0.468876
 40
0.468876
 10
201.944
 20
-105.548
 30
0
 10
202.407
 20
-105.474
 30
0
  0
SPLINE
  5
AA1
330
A02
100
AcDbEntity
  8
polygon141_4
100
AcDbSpline
210
0
220
0
230
1
 70
8
 71
1
 72
4
 73
2
 74
0
 40
0
 40
0
 40
0.469141
 40
0.469141
 10
202.407
 20
-105.474
 30
0
 10
202.825
 20
-105.261
 30
0
  0
SPLINE
  5
AA2
330
A02
100
AcDbEntity
  8
polygon141_4
100
AcDbSpline
210
0
220
0
230
1
 70
8
 71
1
 72
4
 73
2
 74
0
 40
0
 40
0
 40
0.469519
 40
0.469519
 10
202.825
 20
-105.261
 30
0
 10
203.157
 20
-104.929
 30
0
  0
SPLINE
  5
AA3
330
A02
100
AcDbEntity
  8
polygon141_4
100
AcDbSpline
210
0
220
0
230
1
 70
8
 71
1
 72
4
 73
2
 74
0
 40
0
 40
0
 40
0.469141
 40
0.469141
 10
203.157
 20
-104.929
 30
0
 10
203.37
 20
-104.511
 30
0
  0
SPLINE
  5
AA4
330
A02
100
AcDbEntity
  8
polygon141_4
100
AcDbSpline
210
0
220
0
230
1
 70
8
 71
1
 72
4
 73
2
 74
0
 40
0
 40
0
 40
0.468876
 40
0.468876
 10
203.37
 20
-104.511
 30
0
 10
203.444
 20
-104.048
 30
0
  0
SPLINE
  5
AA5
330
A02
100
AcDbEntity
  8
polygon141_4
100
AcDbSpline
210
0
220
0
230
1
 70
8
 71
1
 72
4
 73
2
 74
0
 40
0
 40
0
 40
0.469864
 40
0.469864
 10
203.444
 20
-104.048
 30
0
 10
203.37
 20
-103.584
 30
0
  0
SPLINE
  5
AA6
330
A02
100
AcDbEntity
  8
polygon141_4
100
AcDbSpline
210
0
220
0
230
1
 70
8
 71
1
 72
4
 73
2
 74
0
 40
0
 40
0
 40
0.469141
 40
0.469141
 10
203.37
 20
-103.584
 30
0
 10
203.157
 20
-103.166
 30
0
  0
SPLINE
  5
AA7
330
A02
100
AcDbEntity
  8
polygon141_4
100
AcDbSpline
210
0
220
0
230
1
 70
8
 71
1
 72
4
 73
2
 74
0
 40
0
 40
0
 40
0.469519
 40
0.469519
 10
203.157
 20
-103.166
 30
0
 10
202.825
 20
-102.834
 30
0
  0
SPLINE
  5
AA8
330
A02
100
AcDbEntity
  8
polygon141_4
100
AcDbSpline
210
0
220
0
230
1
 70
8
 71
1
 72
4
 73
2
 74
0
 40
0
 40
0
 40
0.469141
 40
0.469141
 10
202.825
 20
-102.834
 30
0
 10
202.407
 20
-102.621
 30
0
  0
SPLINE
  5
AA9
330
A02
100
AcDbEntity
  8
polygon141_4
100
AcDbSpline
210
0
220
0
230
1
 70
8
 71
1
 72
4
 73
2
 74
0
 40
0
 40
0
 40
0.46872
 40
0.46872
 10
202.407
 20
-102.621
 30
0
 10
201.944
 20
-102.548
 30
0
  0
SPLINE
  5
AAA
330
A02
100
AcDbEntity
  8
polygon141_4
100
AcDbSpline
210
0
220
0
230
1
 70
8
 71
1
 72
4
 73
2
 74
0
 40
0
 40
0
 40
0.469707
 40
0.469707
 10
201.944
 20
-102.548
 30
0
 10
201.48
 20
-102.621
 30
0
  0
SPLINE
  5
AAB
330
A02
100
AcDbEntity
  8
polygon141_4
100
AcDbSpline
210
0
220
0
230
1
 70
8
 71
1
 72
4
 73
2
 74
0
 40
0
 40
0
 40
0.469141
 40
0.469141
 10
201.48
 20
-102.621
 30
0
 10
201.062
 20
-102.834
 30
0
  0
SPLINE
  5
AAC
330
A02
100
AcDbEntity
  8
polygon143_7
100
AcDbSpline
210
0
220
0
230
1
 70
8
 71
1
 72
4
 73
2
 74
0
 40
0
 40
0
 40
0.469141
 40
0.469141
 10
107.191
 20
-102.834
 30
0
 10
106.773
 20
-102.621
 30
0
  0
SPLINE
  5
AAD
330
A02
100
AcDbEntity
  8
polygon143_7
100
AcDbSpline
210
0
220
0
230
1
 70
8
 71
1
 72
4
 73
2
 74
0
 40
0
 40
0
 40
0.469707
 40
0.469707
 10
106.773
 20
-102.621
 30
0
 10
106.309
 20
-102.548
 30
0
  0
SPLINE
  5
AAE
330
A02
100
AcDbEntity
  8
polygon143_7
100
AcDbSpline
210
0
220
0
230
1
 70
8
 71
1
 72
4
 73
2
 74
0
 40
0
 40
0
 40
0.469707
 40
0.469707
 10
106.309
 20
-102.548
 30
0
 10
105.845
 20
-102.621
 30
0
  0
SPLINE
  5
AAF
330
A02
100
AcDbEntity
  8
polygon143_7
100
AcDbSpline
210
0
220
0
230
1
 70
8
 71
1
 72
4
 73
2
 74
0
 40
0
 40
0
 40
0.469141
 40
0.469141
 10
105.845
 20
-102.621
 30
0
 10
105.427
 20
-102.834
 30
0
  0
SPLINE
  5
AB0
330
A02
100
AcDbEntity
  8
polygon143_7
100
AcDbSpline
210
0
220
0
230
1
 70
8
 71
1
 72
4
 73
2
 74
0
 40
0
 40
0
 40
0.469519
 40
0.469519
 10
105.427
 20
-102.834
 30
0
 10
105.095
 20
-103.166
 30
0
  0
SPLINE
  5
AB1
330
A02
100
AcDbEntity
  8
polygon143_7
100
AcDbSpline
210
0
220
0
230
1
 70
8
 71
1
 72
4
 73
2
 74
0
 40
0
 40
0
 40
0.469141
 40
0.469141
 10
105.095
 20
-103.166
 30
0
 10
104.882
 20
-103.584
 30
0
  0
SPLINE
  5
AB2
330
A02
100
AcDbEntity
  8
polygon143_7
100
AcDbSpline
210
0
220
0
230
1
 70
8
 71
1
 72
4
 73
2
 74
0
 40
0
 40
0
 40
0.469707
 40
0.469707
 10
104.882
 20
-103.584
 30
0
 10
104.809
 20
-104.048
 30
0
  0
SPLINE
  5
AB3
330
A02
100
AcDbEntity
  8
polygon143_7
100
AcDbSpline
210
0
220
0
230
1
 70
8
 71
1
 72
4
 73
2
 74
0
 40
0
 40
0
 40
0.46872
 40
0.46872
 10
104.809
 20
-104.048
 30
0
 10
104.882
 20
-104.511
 30
0
  0
SPLINE
  5
AB4
330
A02
100
AcDbEntity
  8
polygon143_7
100
AcDbSpline
210
0
220
0
230
1
 70
8
 71
1
 72
4
 73
2
 74
0
 40
0
 40
0
 40
0.469141
 40
0.469141
 10
104.882
 20
-104.511
 30
0
 10
105.095
 20
-104.929
 30
0
  0
SPLINE
  5
AB5
330
A02
100
AcDbEntity
  8
polygon143_7
100
AcDbSpline
210
0
220
0
230
1
 70
8
 71
1
 72
4
 73
2
 74
0
 40
0
 40
0
 40
0.469519
 40
0.469519
 10
105.095
 20
-104.929
 30
0
 10
105.427
 20
-105.261
 30
0
  0
SPLINE
  5
AB6
330
A02
100
AcDbEntity
  8
polygon143_7
100
AcDbSpline
210
0
220
0
230
1
 70
8
 71
1
 72
4
 73
2
 74
0
 40
0
 40
0
 40
0.469141
 40
0.469141
 10
105.427
 20
-105.261
 30
0
 10
105.845
 20
-105.474
 30
0
  0
SPLINE
  5
AB7
330
A02
100
AcDbEntity
  8
polygon143_7
100
AcDbSpline
210
0
220
0
230
1
 70
8
 71
1
 72
4
 73
2
 74
0
 40
0
 40
0
 40
0.469864
 40
0.469864
 10
105.845
 20
-105.474
 30
0
 10
106.309
 20
-105.548
 30
0
  0
SPLINE
  5
AB8
330
A02
100
AcDbEntity
  8
polygon143_7
100
AcDbSpline
210
0
220
0
230
1
 70
8
 71
1
 72
4
 73
2
 74
0
 40
0
 40
0
 40
0.469864
 40
0.469864
 10
106.309
 20
-105.548
 30
0
 10
106.773
 20
-105.474
 30
0
  0
SPLINE
  5
AB9
330
A02
100
AcDbEntity
  8
polygon143_7
100
AcDbSpline
210
0
220
0
230
1
 70
8
 71
1
 72
4
 73
2
 74
0
 40
0
 40
0
 40
0.469141
 40
0.469141
 10
106.773
 20
-105.474
 30
0
 10
107.191
 20
-105.261
 30
0
  0
SPLINE
  5
ABA
330
A02
100
AcDbEntity
  8
polygon143_7
100
AcDbSpline
210
0
220
0
230
1
 70
8
 71
1
 72
4
 73
2
 74
0
 40
0
 40
0
 40
0.469519
 40
0.469519
 10
107.191
 20
-105.261
 30
0
 10
107.523
 20
-104.929
 30
0
  0
SPLINE
  5
ABB
330
A02
100
AcDbEntity
  8
polygon143_7
100
AcDbSpline
210
0
220
0
230
1
 70
8
 71
1
 72
4
 73
2
 74
0
 40
0
 40
0
 40
0.469141
 40
0.469141
 10
107.523
 20
-104.929
 30
0
 10
107.736
 20
-104.511
 30
0
  0
SPLINE
  5
ABC
330
A02
100
AcDbEntity
  8
polygon143_7
100
AcDbSpline
210
0
220
0
230
1
 70
8
 71
1
 72
4
 73
2
 74
0
 40
0
 40
0
 40
0.46872
 40
0.46872
 10
107.736
 20
-104.511
 30
0
 10
107.809
 20
-104.048
 30
0
  0
SPLINE
  5
ABD
330
A02
100
AcDbEntity
  8
polygon143_7
100
AcDbSpline
210
0
220
0
230
1
 70
8
 71
1
 72
4
 73
2
 74
0
 40
0
 40
0
 40
0.469707
 40
0.469707
 10
107.809
 20
-104.048
 30
0
 10
107.736
 20
-103.584
 30
0
  0
SPLINE
  5
ABE
330
A02
100
AcDbEntity
  8
polygon143_7
100
AcDbSpline
210
0
220
0
230
1
 70
8
 71
1
 72
4
 73
2
 74
0
 40
0
 40
0
 40
0.469141
 40
0.469141
 10
107.736
 20
-103.584
 30
0
 10
107.523
 20
-103.166
 30
0
  0
SPLINE
  5
ABF
330
A02
100
AcDbEntity
  8
polygon143_7
100
AcDbSpline
210
0
220
0
230
1
 70
8
 71
1
 72
4
 73
2
 74
0
 40
0
 40
0
 40
0.469519
 40
0.469519
 10
107.523
 20
-103.166
 30
0
 10
107.191
 20
-102.834
 30
0
  0
SPLINE
  5
AC0
330
A02
100
AcDbEntity
  8
polygon145_6
100
AcDbSpline
210
0
220
0
230
1
 70
8
 71
1
 72
4
 73
2
 74
0
 40
0
 40
0
 40
0.469519
 40
0.469519
 10
9.794
 20
-102.834
 30
0
 10
9.462
 20
-103.166
 30
0
  0
SPLINE
  5
AC1
330
A02
100
AcDbEntity
  8
polygon145_6
100
AcDbSpline
210
0
220
0
230
1
 70
8
 71
1
 72
4
 73
2
 74
0
 40
0
 40
0
 40
0.469141
 40
0.469141
 10
9.462
 20
-103.166
 30
0
 10
9.249
 20
-103.584
 30
0
  0
SPLINE
  5
AC2
330
A02
100
AcDbEntity
  8
polygon145_6
100
AcDbSpline
210
0
220
0
230
1
 70
8
 71
1
 72
4
 73
2
 74
0
 40
0
 40
0
 40
0.469864
 40
0.469864
 10
9.249
 20
-103.584
 30
0
 10
9.175
 20
-104.048
 30
0
  0
SPLINE
  5
AC3
330
A02
100
AcDbEntity
  8
polygon145_6
100
AcDbSpline
210
0
220
0
230
1
 70
8
 71
1
 72
4
 73
2
 74
0
 40
0
 40
0
 40
0.468876
 40
0.468876
 10
9.175
 20
-104.048
 30
0
 10
9.249
 20
-104.511
 30
0
  0
SPLINE
  5
AC4
330
A02
100
AcDbEntity
  8
polygon145_6
100
AcDbSpline
210
0
220
0
230
1
 70
8
 71
1
 72
4
 73
2
 74
0
 40
0
 40
0
 40
0.469141
 40
0.469141
 10
9.249
 20
-104.511
 30
0
 10
9.462
 20
-104.929
 30
0
  0
SPLINE
  5
AC5
330
A02
100
AcDbEntity
  8
polygon145_6
100
AcDbSpline
210
0
220
0
230
1
 70
8
 71
1
 72
4
 73
2
 74
0
 40
0
 40
0
 40
0.469519
 40
0.469519
 10
9.462
 20
-104.929
 30
0
 10
9.794
 20
-105.261
 30
0
  0
SPLINE
  5
AC6
330
A02
100
AcDbEntity
  8
polygon145_6
100
AcDbSpline
210
0
220
0
230
1
 70
8
 71
1
 72
4
 73
2
 74
0
 40
0
 40
0
 40
0.469141
 40
0.469141
 10
9.794
 20
-105.261
 30
0
 10
10.212
 20
-105.474
 30
0
  0
SPLINE
  5
AC7
330
A02
100
AcDbEntity
  8
polygon145_6
100
AcDbSpline
210
0
220
0
230
1
 70
8
 71
1
 72
4
 73
2
 74
0
 40
0
 40
0
 40
0.469864
 40
0.469864
 10
10.212
 20
-105.474
 30
0
 10
10.676
 20
-105.548
 30
0
  0
SPLINE
  5
AC8
330
A02
100
AcDbEntity
  8
polygon145_6
100
AcDbSpline
210
0
220
0
230
1
 70
8
 71
1
 72
4
 73
2
 74
0
 40
0
 40
0
 40
0.468876
 40
0.468876
 10
10.676
 20
-105.548
 30
0
 10
11.139
 20
-105.474
 30
0
  0
SPLINE
  5
AC9
330
A02
100
AcDbEntity
  8
polygon145_6
100
AcDbSpline
210
0
220
0
230
1
 70
8
 71
1
 72
4
 73
2
 74
0
 40
0
 40
0
 40
0.469141
 40
0.469141
 10
11.139
 20
-105.474
 30
0
 10
11.557
 20
-105.261
 30
0
  0
SPLINE
  5
ACA
330
A02
100
AcDbEntity
  8
polygon145_6
100
AcDbSpline
210
0
220
0
230
1
 70
8
 71
1
 72
4
 73
2
 74
0
 40
0
 40
0
 40
0.469519
 40
0.469519
 10
11.557
 20
-105.261
 30
0
 10
11.889
 20
-104.929
 30
0
  0
SPLINE
  5
ACB
330
A02
100
AcDbEntity
  8
polygon145_6
100
AcDbSpline
210
0
220
0
230
1
 70
8
 71
1
 72
4
 73
2
 74
0
 40
0
 40
0
 40
0.469141
 40
0.469141
 10
11.889
 20
-104.929
 30
0
 10
12.102
 20
-104.511
 30
0
  0
SPLINE
  5
ACC
330
A02
100
AcDbEntity
  8
polygon145_6
100
AcDbSpline
210
0
220
0
230
1
 70
8
 71
1
 72
4
 73
2
 74
0
 40
0
 40
0
 40
0.468876
 40
0.468876
 10
12.102
 20
-104.511
 30
0
 10
12.176
 20
-104.048
 30
0
  0
SPLINE
  5
ACD
330
A02
100
AcDbEntity
  8
polygon145_6
100
AcDbSpline
210
0
220
0
230
1
 70
8
 71
1
 72
4
 73
2
 74
0
 40
0
 40
0
 40
0.469864
 40
0.469864
 10
12.176
 20
-104.048
 30
0
 10
12.102
 20
-103.584
 30
0
  0
SPLINE
  5
ACE
330
A02
100
AcDbEntity
  8
polygon145_6
100
AcDbSpline
210
0
220
0
230
1
 70
8
 71
1
 72
4
 73
2
 74
0
 40
0
 40
0
 40
0.469141
 40
0.469141
 10
12.102
 20
-103.584
 30
0
 10
11.889
 20
-103.166
 30
0
  0
SPLINE
  5
ACF
330
A02
100
AcDbEntity
  8
polygon145_6
100
AcDbSpline
210
0
220
0
230
1
 70
8
 71
1
 72
4
 73
2
 74
0
 40
0
 40
0
 40
0.469519
 40
0.469519
 10
11.889
 20
-103.166
 30
0
 10
11.557
 20
-102.834
 30
0
  0
SPLINE
  5
AD0
330
A02
100
AcDbEntity
  8
polygon145_6
100
AcDbSpline
210
0
220
0
230
1
 70
8
 71
1
 72
4
 73
2
 74
0
 40
0
 40
0
 40
0.469141
 40
0.469141
 10
11.557
 20
-102.834
 30
0
 10
11.139
 20
-102.621
 30
0
  0
SPLINE
  5
AD1
330
A02
100
AcDbEntity
  8
polygon145_6
100
AcDbSpline
210
0
220
0
230
1
 70
8
 71
1
 72
4
 73
2
 74
0
 40
0
 40
0
 40
0.46872
 40
0.46872
 10
11.139
 20
-102.621
 30
0
 10
10.676
 20
-102.548
 30
0
  0
SPLINE
  5
AD2
330
A02
100
AcDbEntity
  8
polygon145_6
100
AcDbSpline
210
0
220
0
230
1
 70
8
 71
1
 72
4
 73
2
 74
0
 40
0
 40
0
 40
0.469707
 40
0.469707
 10
10.676
 20
-102.548
 30
0
 10
10.212
 20
-102.621
 30
0
  0
SPLINE
  5
AD3
330
A02
100
AcDbEntity
  8
polygon145_6
100
AcDbSpline
210
0
220
0
230
1
 70
8
 71
1
 72
4
 73
2
 74
0
 40
0
 40
0
 40
0.469141
 40
0.469141
 10
10.212
 20
-102.621
 30
0
 10
9.794
 20
-102.834
 30
0
  0
SPLINE
  5
AD4
330
A02
100
AcDbEntity
  8
polygon225
100
AcDbSpline
210
0
220
0
230
1
 70
8
 71
1
 72
4
 73
2
 74
0
 40
0
 40
0
 40
0.469519
 40
0.469519
 10
105.095
 20
-14.732
 30
0
 10
105.427
 20
-15.064
 30
0
  0
SPLINE
  5
AD5
330
A02
100
AcDbEntity
  8
polygon225
100
AcDbSpline
210
0
220
0
230
1
 70
8
 71
1
 72
4
 73
2
 74
0
 40
0
 40
0
 40
0.469141
 40
0.469141
 10
105.427
 20
-15.064
 30
0
 10
105.845
 20
-15.277
 30
0
  0
SPLINE
  5
AD6
330
A02
100
AcDbEntity
  8
polygon225
100
AcDbSpline
210
0
220
0
230
1
 70
8
 71
1
 72
4
 73
2
 74
0
 40
0
 40
0
 40
0.469864
 40
0.469864
 10
105.845
 20
-15.277
 30
0
 10
106.309
 20
-15.351
 30
0
  0
SPLINE
  5
AD7
330
A02
100
AcDbEntity
  8
polygon225
100
AcDbSpline
210
0
220
0
230
1
 70
8
 71
1
 72
4
 73
2
 74
0
 40
0
 40
0
 40
0.469864
 40
0.469864
 10
106.309
 20
-15.351
 30
0
 10
106.773
 20
-15.277
 30
0
  0
SPLINE
  5
AD8
330
A02
100
AcDbEntity
  8
polygon225
100
AcDbSpline
210
0
220
0
230
1
 70
8
 71
1
 72
4
 73
2
 74
0
 40
0
 40
0
 40
0.469141
 40
0.469141
 10
106.773
 20
-15.277
 30
0
 10
107.191
 20
-15.064
 30
0
  0
SPLINE
  5
AD9
330
A02
100
AcDbEntity
  8
polygon225
100
AcDbSpline
210
0
220
0
230
1
 70
8
 71
1
 72
4
 73
2
 74
0
 40
0
 40
0
 40
0.469519
 40
0.469519
 10
107.191
 20
-15.064
 30
0
 10
107.523
 20
-14.732
 30
0
  0
SPLINE
  5
ADA
330
A02
100
AcDbEntity
  8
polygon225
100
AcDbSpline
210
0
220
0
230
1
 70
8
 71
1
 72
4
 73
2
 74
0
 40
0
 40
0
 40
0.469141
 40
0.469141
 10
107.523
 20
-14.732
 30
0
 10
107.736
 20
-14.314
 30
0
  0
SPLINE
  5
ADB
330
A02
100
AcDbEntity
  8
polygon225
100
AcDbSpline
210
0
220
0
230
1
 70
8
 71
1
 72
4
 73
2
 74
0
 40
0
 40
0
 40
0.46872
 40
0.46872
 10
107.736
 20
-14.314
 30
0
 10
107.809
 20
-13.851
 30
0
  0
SPLINE
  5
ADC
330
A02
100
AcDbEntity
  8
polygon225
100
AcDbSpline
210
0
220
0
230
1
 70
8
 71
1
 72
4
 73
2
 74
0
 40
0
 40
0
 40
0.469707
 40
0.469707
 10
107.809
 20
-13.851
 30
0
 10
107.736
 20
-13.387
 30
0
  0
SPLINE
  5
ADD
330
A02
100
AcDbEntity
  8
polygon225
100
AcDbSpline
210
0
220
0
230
1
 70
8
 71
1
 72
4
 73
2
 74
0
 40
0
 40
0
 40
0.469141
 40
0.469141
 10
107.736
 20
-13.387
 30
0
 10
107.523
 20
-12.969
 30
0
  0
SPLINE
  5
ADE
330
A02
100
AcDbEntity
  8
polygon225
100
AcDbSpline
210
0
220
0
230
1
 70
8
 71
1
 72
4
 73
2
 74
0
 40
0
 40
0
 40
0.469519
 40
0.469519
 10
107.523
 20
-12.969
 30
0
 10
107.191
 20
-12.637
 30
0
  0
SPLINE
  5
ADF
330
A02
100
AcDbEntity
  8
polygon225
100
AcDbSpline
210
0
220
0
230
1
 70
8
 71
1
 72
4
 73
2
 74
0
 40
0
 40
0
 40
0.469141
 40
0.469141
 10
107.191
 20
-12.637
 30
0
 10
106.773
 20
-12.424
 30
0
  0
SPLINE
  5
AE0
330
A02
100
AcDbEntity
  8
polygon225
100
AcDbSpline
210
0
220
0
230
1
 70
8
 71
1
 72
4
 73
2
 74
0
 40
0
 40
0
 40
0.469707
 40
0.469707
 10
106.773
 20
-12.424
 30
0
 10
106.309
 20
-12.351
 30
0
  0
SPLINE
  5
AE1
330
A02
100
AcDbEntity
  8
polygon225
100
AcDbSpline
210
0
220
0
230
1
 70
8
 71
1
 72
4
 73
2
 74
0
 40
0
 40
0
 40
0.469707
 40
0.469707
 10
106.309
 20
-12.351
 30
0
 10
105.845
 20
-12.424
 30
0
  0
SPLINE
  5
AE2
330
A02
100
AcDbEntity
  8
polygon225
100
AcDbSpline
210
0
220
0
230
1
 70
8
 71
1
 72
4
 73
2
 74
0
 40
0
 40
0
 40
0.469141
 40
0.469141
 10
105.845
 20
-12.424
 30
0
 10
105.427
 20
-12.637
 30
0
  0
SPLINE
  5
AE3
330
A02
100
AcDbEntity
  8
polygon225
100
AcDbSpline
210
0
220
0
230
1
 70
8
 71
1
 72
4
 73
2
 74
0
 40
0
 40
0
 40
0.469519
 40
0.469519
 10
105.427
 20
-12.637
 30
0
 10
105.095
 20
-12.969
 30
0
  0
SPLINE
  5
AE4
330
A02
100
AcDbEntity
  8
polygon225
100
AcDbSpline
210
0
220
0
230
1
 70
8
 71
1
 72
4
 73
2
 74
0
 40
0
 40
0
 40
0.469141
 40
0.469141
 10
105.095
 20
-12.969
 30
0
 10
104.882
 20
-13.387
 30
0
  0
SPLINE
  5
AE5
330
A02
100
AcDbEntity
  8
polygon225
100
AcDbSpline
210
0
220
0
230
1
 70
8
 71
1
 72
4
 73
2
 74
0
 40
0
 40
0
 40
0.469707
 40
0.469707
 10
104.882
 20
-13.387
 30
0
 10
104.809
 20
-13.851
 30
0
  0
SPLINE
  5
AE6
330
A02
100
AcDbEntity
  8
polygon225
100
AcDbSpline
210
0
220
0
230
1
 70
8
 71
1
 72
4
 73
2
 74
0
 40
0
 40
0
 40
0.46872
 40
0.46872
 10
104.809
 20
-13.851
 30
0
 10
104.882
 20
-14.314
 30
0
  0
SPLINE
  5
AE7
330
A02
100
AcDbEntity
  8
polygon225
100
AcDbSpline
210
0
220
0
230
1
 70
8
 71
1
 72
4
 73
2
 74
0
 40
0
 40
0
 40
0.469141
 40
0.469141
 10
104.882
 20
-14.314
 30
0
 10
105.095
 20
-14.732
 30
0
  0
SPLINE
  5
AE8
330
A02
100
AcDbEntity
  8
polygon227
100
AcDbSpline
210
0
220
0
230
1
 70
8
 71
1
 72
4
 73
2
 74
0
 40
0
 40
0
 40
0.469141
 40
0.469141
 10
202.407
 20
-15.277
 30
0
 10
202.825
 20
-15.064
 30
0
  0
SPLINE
  5
AE9
330
A02
100
AcDbEntity
  8
polygon227
100
AcDbSpline
210
0
220
0
230
1
 70
8
 71
1
 72
4
 73
2
 74
0
 40
0
 40
0
 40
0.469519
 40
0.469519
 10
202.825
 20
-15.064
 30
0
 10
203.157
 20
-14.732
 30
0
  0
SPLINE
  5
AEA
330
A02
100
AcDbEntity
  8
polygon227
100
AcDbSpline
210
0
220
0
230
1
 70
8
 71
1
 72
4
 73
2
 74
0
 40
0
 40
0
 40
0.469141
 40
0.469141
 10
203.157
 20
-14.732
 30
0
 10
203.37
 20
-14.314
 30
0
  0
SPLINE
  5
AEB
330
A02
100
AcDbEntity
  8
polygon227
100
AcDbSpline
210
0
220
0
230
1
 70
8
 71
1
 72
4
 73
2
 74
0
 40
0
 40
0
 40
0.468876
 40
0.468876
 10
203.37
 20
-14.314
 30
0
 10
203.444
 20
-13.851
 30
0
  0
SPLINE
  5
AEC
330
A02
100
AcDbEntity
  8
polygon227
100
AcDbSpline
210
0
220
0
230
1
 70
8
 71
1
 72
4
 73
2
 74
0
 40
0
 40
0
 40
0.469864
 40
0.469864
 10
203.444
 20
-13.851
 30
0
 10
203.37
 20
-13.387
 30
0
  0
SPLINE
  5
AED
330
A02
100
AcDbEntity
  8
polygon227
100
AcDbSpline
210
0
220
0
230
1
 70
8
 71
1
 72
4
 73
2
 74
0
 40
0
 40
0
 40
0.469141
 40
0.469141
 10
203.37
 20
-13.387
 30
0
 10
203.157
 20
-12.969
 30
0
  0
SPLINE
  5
AEE
330
A02
100
AcDbEntity
  8
polygon227
100
AcDbSpline
210
0
220
0
230
1
 70
8
 71
1
 72
4
 73
2
 74
0
 40
0
 40
0
 40
0.469519
 40
0.469519
 10
203.157
 20
-12.969
 30
0
 10
202.825
 20
-12.637
 30
0
  0
SPLINE
  5
AEF
330
A02
100
AcDbEntity
  8
polygon227
100
AcDbSpline
210
0
220
0
230
1
 70
8
 71
1
 72
4
 73
2
 74
0
 40
0
 40
0
 40
0.469141
 40
0.469141
 10
202.825
 20
-12.637
 30
0
 10
202.407
 20
-12.424
 30
0
  0
SPLINE
  5
AF0
330
A02
100
AcDbEntity
  8
polygon227
100
AcDbSpline
210
0
220
0
230
1
 70
8
 71
1
 72
4
 73
2
 74
0
 40
0
 40
0
 40
0.46872
 40
0.46872
 10
202.407
 20
-12.424
 30
0
 10
201.944
 20
-12.351
 30
0
  0
SPLINE
  5
AF1
330
A02
100
AcDbEntity
  8
polygon227
100
AcDbSpline
210
0
220
0
230
1
 70
8
 71
1
 72
4
 73
2
 74
0
 40
0
 40
0
 40
0.469707
 40
0.469707
 10
201.944
 20
-12.351
 30
0
 10
201.48
 20
-12.424
 30
0
  0
SPLINE
  5
AF2
330
A02
100
AcDbEntity
  8
polygon227
100
AcDbSpline
210
0
220
0
230
1
 70
8
 71
1
 72
4
 73
2
 74
0
 40
0
 40
0
 40
0.469141
 40
0.469141
 10
201.48
 20
-12.424
 30
0
 10
201.062
 20
-12.637
 30
0
  0
SPLINE
  5
AF3
330
A02
100
AcDbEntity
  8
polygon227
100
AcDbSpline
210
0
220
0
230
1
 70
8
 71
1
 72
4
 73
2
 74
0
 40
0
 40
0
 40
0.469519
 40
0.469519
 10
201.062
 20
-12.637
 30
0
 10
200.73
 20
-12.969
 30
0
  0
SPLINE
  5
AF4
330
A02
100
AcDbEntity
  8
polygon227
100
AcDbSpline
210
0
220
0
230
1
 70
8
 71
1
 72
4
 73
2
 74
0
 40
0
 40
0
 40
0.469141
 40
0.469141
 10
200.73
 20
-12.969
 30
0
 10
200.517
 20
-13.387
 30
0
  0
SPLINE
  5
AF5
330
A02
100
AcDbEntity
  8
polygon227
100
AcDbSpline
210
0
220
0
230
1
 70
8
 71
1
 72
4
 73
2
 74
0
 40
0
 40
0
 40
0.469707
 40
0.469707
 10
200.517
 20
-13.387
 30
0
 10
200.444
 20
-13.851
 30
0
  0
SPLINE
  5
AF6
330
A02
100
AcDbEntity
  8
polygon227
100
AcDbSpline
210
0
220
0
230
1
 70
8
 71
1
 72
4
 73
2
 74
0
 40
0
 40
0
 40
0.46872
 40
0.46872
 10
200.444
 20
-13.851
 30
0
 10
200.517
 20
-14.314
 30
0
  0
SPLINE
  5
AF7
330
A02
100
AcDbEntity
  8
polygon227
100
AcDbSpline
210
0
220
0
230
1
 70
8
 71
1
 72
4
 73
2
 74
0
 40
0
 40
0
 40
0.469141
 40
0.469141
 10
200.517
 20
-14.314
 30
0
 10
200.73
 20
-14.732
 30
0
  0
SPLINE
  5
AF8
330
A02
100
AcDbEntity
  8
polygon227
100
AcDbSpline
210
0
220
0
230
1
 70
8
 71
1
 72
4
 73
2
 74
0
 40
0
 40
0
 40
0.469519
 40
0.469519
 10
200.73
 20
-14.732
 30
0
 10
201.062
 20
-15.064
 30
0
  0
SPLINE
  5
AF9
330
A02
100
AcDbEntity
  8
polygon227
100
AcDbSpline
210
0
220
0
230
1
 70
8
 71
1
 72
4
 73
2
 74
0
 40
0
 40
0
 40
0.469141
 40
0.469141
 10
201.062
 20
-15.064
 30
0
 10
201.48
 20
-15.277
 30
0
  0
SPLINE
  5
AFA
330
A02
100
AcDbEntity
  8
polygon227
100
AcDbSpline
210
0
220
0
230
1
 70
8
 71
1
 72
4
 73
2
 74
0
 40
0
 40
0
 40
0.469864
 40
0.469864
 10
201.48
 20
-15.277
 30
0
 10
201.944
 20
-15.351
 30
0
  0
SPLINE
  5
AFB
330
A02
100
AcDbEntity
  8
polygon227
100
AcDbSpline
210
0
220
0
230
1
 70
8
 71
1
 72
4
 73
2
 74
0
 40
0
 40
0
 40
0.468876
 40
0.468876
 10
201.944
 20
-15.351
 30
0
 10
202.407
 20
-15.277
 30
0
  0
SPLINE
  5
AFC
330
A02
100
AcDbEntity
  8
polygon229
100
AcDbSpline
210
0
220
0
230
1
 70
8
 71
1
 72
4
 73
2
 74
0
 40
0
 40
0
 40
0.469141
 40
0.469141
 10
11.139
 20
-15.277
 30
0
 10
11.557
 20
-15.064
 30
0
  0
SPLINE
  5
AFD
330
A02
100
AcDbEntity
  8
polygon229
100
AcDbSpline
210
0
220
0
230
1
 70
8
 71
1
 72
4
 73
2
 74
0
 40
0
 40
0
 40
0.469519
 40
0.469519
 10
11.557
 20
-15.064
 30
0
 10
11.889
 20
-14.732
 30
0
  0
SPLINE
  5
AFE
330
A02
100
AcDbEntity
  8
polygon229
100
AcDbSpline
210
0
220
0
230
1
 70
8
 71
1
 72
4
 73
2
 74
0
 40
0
 40
0
 40
0.469141
 40
0.469141
 10
11.889
 20
-14.732
 30
0
 10
12.102
 20
-14.314
 30
0
  0
SPLINE
  5
AFF
330
A02
100
AcDbEntity
  8
polygon229
100
AcDbSpline
210
0
220
0
230
1
 70
8
 71
1
 72
4
 73
2
 74
0
 40
0
 40
0
 40
0.468876
 40
0.468876
 10
12.102
 20
-14.314
 30
0
 10
12.176
 20
-13.851
 30
0
  0
SPLINE
  5
B00
330
A02
100
AcDbEntity
  8
polygon229
100
AcDbSpline
210
0
220
0
230
1
 70
8
 71
1
 72
4
 73
2
 74
0
 40
0
 40
0
 40
0.469864
 40
0.469864
 10
12.176
 20
-13.851
 30
0
 10
12.102
 20
-13.387
 30
0
  0
SPLINE
  5
B01
330
A02
100
AcDbEntity
  8
polygon229
100
AcDbSpline
210
0
220
0
230
1
 70
8
 71
1
 72
4
 73
2
 74
0
 40
0
 40
0
 40
0.469141
 40
0.469141
 10
12.102
 20
-13.387
 30
0
 10
11.889
 20
-12.969
 30
0
  0
SPLINE
  5
B02
330
A02
100
AcDbEntity
  8
polygon229
100
AcDbSpline
210
0
220
0
230
1
 70
8
 71
1
 72
4
 73
2
 74
0
 40
0
 40
0
 40
0.469519
 40
0.469519
 10
11.889
 20
-12.969
 30
0
 10
11.557
 20
-12.637
 30
0
  0
SPLINE
  5
B03
330
A02
100
AcDbEntity
  8
polygon229
100
AcDbSpline
210
0
220
0
230
1
 70
8
 71
1
 72
4
 73
2
 74
0
 40
0
 40
0
 40
0.469141
 40
0.469141
 10
11.557
 20
-12.637
 30
0
 10
11.139
 20
-12.424
 30
0
  0
SPLINE
  5
B04
330
A02
100
AcDbEntity
  8
polygon229
100
AcDbSpline
210
0
220
0
230
1
 70
8
 71
1
 72
4
 73
2
 74
0
 40
0
 40
0
 40
0.46872
 40
0.46872
 10
11.139
 20
-12.424
 30
0
 10
10.676
 20
-12.351
 30
0
  0
SPLINE
  5
B05
330
A02
100
AcDbEntity
  8
polygon229
100
AcDbSpline
210
0
220
0
230
1
 70
8
 71
1
 72
4
 73
2
 74
0
 40
0
 40
0
 40
0.469707
 40
0.469707
 10
10.676
 20
-12.351
 30
0
 10
10.212
 20
-12.424
 30
0
  0
SPLINE
  5
B06
330
A02
100
AcDbEntity
  8
polygon229
100
AcDbSpline
210
0
220
0
230
1
 70
8
 71
1
 72
4
 73
2
 74
0
 40
0
 40
0
 40
0.469141
 40
0.469141
 10
10.212
 20
-12.424
 30
0
 10
9.794
 20
-12.637
 30
0
  0
SPLINE
  5
B07
330
A02
100
AcDbEntity
  8
polygon229
100
AcDbSpline
210
0
220
0
230
1
 70
8
 71
1
 72
4
 73
2
 74
0
 40
0
 40
0
 40
0.469519
 40
0.469519
 10
9.794
 20
-12.637
 30
0
 10
9.462
 20
-12.969
 30
0
  0
SPLINE
  5
B08
330
A02
100
AcDbEntity
  8
polygon229
100
AcDbSpline
210
0
220
0
230
1
 70
8
 71
1
 72
4
 73
2
 74
0
 40
0
 40
0
 40
0.469141
 40
0.469141
 10
9.462
 20
-12.969
 30
0
 10
9.249
 20
-13.387
 30
0
  0
SPLINE
  5
B09
330
A02
100
AcDbEntity
  8
polygon229
100
AcDbSpline
210
0
220
0
230
1
 70
8
 71
1
 72
4
 73
2
 74
0
 40
0
 40
0
 40
0.469864
 40
0.469864
 10
9.249
 20
-13.387
 30
0
 10
9.175
 20
-13.851
 30
0
  0
SPLINE
  5
B0A
330
A02
100
AcDbEntity
  8
polygon229
100
AcDbSpline
210
0
220
0
230
1
 70
8
 71
1
 72
4
 73
2
 74
0
 40
0
 40
0
 40
0.468876
 40
0.468876
 10
9.175
 20
-13.851
 30
0
 10
9.249
 20
-14.314
 30
0
  0
SPLINE
  5
B0B
330
A02
100
AcDbEntity
  8
polygon229
100
AcDbSpline
210
0
220
0
230
1
 70
8
 71
1
 72
4
 73
2
 74
0
 40
0
 40
0
 40
0.469141
 40
0.469141
 10
9.249
 20
-14.314
 30
0
 10
9.462
 20
-14.732
 30
0
  0
SPLINE
  5
B0C
330
A02
100
AcDbEntity
  8
polygon229
100
AcDbSpline
210
0
220
0
230
1
 70
8
 71
1
 72
4
 73
2
 74
0
 40
0
 40
0
 40
0.469519
 40
0.469519
 10
9.462
 20
-14.732
 30
0
 10
9.794
 20
-15.064
 30
0
  0
SPLINE
  5
B0D
330
A02
100
AcDbEntity
  8
polygon229
100
AcDbSpline
210
0
220
0
230
1
 70
8
 71
1
 72
4
 73
2
 74
0
 40
0
 40
0
 40
0.469141
 40
0.469141
 10
9.794
 20
-15.064
 30
0
 10
10.212
 20
-15.277
 30
0
  0
SPLINE
  5
B0E
330
A02
100
AcDbEntity
  8
polygon229
100
AcDbSpline
210
0
220
0
230
1
 70
8
 71
1
 72
4
 73
2
 74
0
 40
0
 40
0
 40
0.469864
 40
0.469864
 10
10.212
 20
-15.277
 30
0
 10
10.676
 20
-15.351
 30
0
  0
SPLINE
  5
B0F
330
A02
100
AcDbEntity
  8
polygon229
100
AcDbSpline
210
0
220
0
230
1
 70
8
 71
1
 72
4
 73
2
 74
0
 40
0
 40
0
 40
0.468876
 40
0.468876
 10
10.676
 20
-15.351
 30
0
 10
11.139
 20
-15.277
 30
0
  0
SPLINE
  5
B10
330
A02
100
AcDbEntity
  8
polygon225_0
100
AcDbSpline
210
0
220
0
230
1
 70
8
 71
1
 72
4
 73
2
 74
0
 40
0
 40
0
 40
0.469519
 40
0.469519
 10
105.427
 20
-2.58283
 30
0
 10
105.095
 20
-2.91483
 30
0
  0
SPLINE
  5
B11
330
A02
100
AcDbEntity
  8
polygon225_0
100
AcDbSpline
210
0
220
0
230
1
 70
8
 71
1
 72
4
 73
2
 74
0
 40
0
 40
0
 40
0.469141
 40
0.469141
 10
105.095
 20
-2.91483
 30
0
 10
104.882
 20
-3.33283
 30
0
  0
SPLINE
  5
B12
330
A02
100
AcDbEntity
  8
polygon225_0
100
AcDbSpline
210
0
220
0
230
1
 70
8
 71
1
 72
4
 73
2
 74
0
 40
0
 40
0
 40
0.469707
 40
0.469707
 10
104.882
 20
-3.33283
 30
0
 10
104.809
 20
-3.79683
 30
0
  0
SPLINE
  5
B13
330
A02
100
AcDbEntity
  8
polygon225_0
100
AcDbSpline
210
0
220
0
230
1
 70
8
 71
1
 72
4
 73
2
 74
0
 40
0
 40
0
 40
0.46872
 40
0.46872
 10
104.809
 20
-3.79683
 30
0
 10
104.882
 20
-4.25983
 30
0
  0
SPLINE
  5
B14
330
A02
100
AcDbEntity
  8
polygon225_0
100
AcDbSpline
210
0
220
0
230
1
 70
8
 71
1
 72
4
 73
2
 74
0
 40
0
 40
0
 40
0.469141
 40
0.469141
 10
104.882
 20
-4.25983
 30
0
 10
105.095
 20
-4.67783
 30
0
  0
SPLINE
  5
B15
330
A02
100
AcDbEntity
  8
polygon225_0
100
AcDbSpline
210
0
220
0
230
1
 70
8
 71
1
 72
4
 73
2
 74
0
 40
0
 40
0
 40
0.469519
 40
0.469519
 10
105.095
 20
-4.67783
 30
0
 10
105.427
 20
-5.00983
 30
0
  0
SPLINE
  5
B16
330
A02
100
AcDbEntity
  8
polygon225_0
100
AcDbSpline
210
0
220
0
230
1
 70
8
 71
1
 72
4
 73
2
 74
0
 40
0
 40
0
 40
0.469141
 40
0.469141
 10
105.427
 20
-5.00983
 30
0
 10
105.845
 20
-5.22283
 30
0
  0
SPLINE
  5
B17
330
A02
100
AcDbEntity
  8
polygon225_0
100
AcDbSpline
210
0
220
0
230
1
 70
8
 71
1
 72
4
 73
2
 74
0
 40
0
 40
0
 40
0.469864
 40
0.469864
 10
105.845
 20
-5.22283
 30
0
 10
106.309
 20
-5.29683
 30
0
  0
SPLINE
  5
B18
330
A02
100
AcDbEntity
  8
polygon225_0
100
AcDbSpline
210
0
220
0
230
1
 70
8
 71
1
 72
4
 73
2
 74
0
 40
0
 40
0
 40
0.469864
 40
0.469864
 10
106.309
 20
-5.29683
 30
0
 10
106.773
 20
-5.22283
 30
0
  0
SPLINE
  5
B19
330
A02
100
AcDbEntity
  8
polygon225_0
100
AcDbSpline
210
0
220
0
230
1
 70
8
 71
1
 72
4
 73
2
 74
0
 40
0
 40
0
 40
0.469141
 40
0.469141
 10
106.773
 20
-5.22283
 30
0
 10
107.191
 20
-5.00983
 30
0
  0
SPLINE
  5
B1A
330
A02
100
AcDbEntity
  8
polygon225_0
100
AcDbSpline
210
0
220
0
230
1
 70
8
 71
1
 72
4
 73
2
 74
0
 40
0
 40
0
 40
0.469519
 40
0.469519
 10
107.191
 20
-5.00983
 30
0
 10
107.523
 20
-4.67783
 30
0
  0
SPLINE
  5
B1B
330
A02
100
AcDbEntity
  8
polygon225_0
100
AcDbSpline
210
0
220
0
230
1
 70
8
 71
1
 72
4
 73
2
 74
0
 40
0
 40
0
 40
0.469141
 40
0.469141
 10
107.523
 20
-4.67783
 30
0
 10
107.736
 20
-4.25983
 30
0
  0
SPLINE
  5
B1C
330
A02
100
AcDbEntity
  8
polygon225_0
100
AcDbSpline
210
0
220
0
230
1
 70
8
 71
1
 72
4
 73
2
 74
0
 40
0
 40
0
 40
0.46872
 40
0.46872
 10
107.736
 20
-4.25983
 30
0
 10
107.809
 20
-3.79683
 30
0
  0
SPLINE
  5
B1D
330
A02
100
AcDbEntity
  8
polygon225_0
100
AcDbSpline
210
0
220
0
230
1
 70
8
 71
1
 72
4
 73
2
 74
0
 40
0
 40
0
 40
0.469707
 40
0.469707
 10
107.809
 20
-3.79683
 30
0
 10
107.736
 20
-3.33283
 30
0
  0
SPLINE
  5
B1E
330
A02
100
AcDbEntity
  8
polygon225_0
100
AcDbSpline
210
0
220
0
230
1
 70
8
 71
1
 72
4
 73
2
 74
0
 40
0
 40
0
 40
0.469141
 40
0.469141
 10
107.736
 20
-3.33283
 30
0
 10
107.523
 20
-2.91483
 30
0
  0
SPLINE
  5
B1F
330
A02
100
AcDbEntity
  8
polygon225_0
100
AcDbSpline
210
0
220
0
230
1
 70
8
 71
1
 72
4
 73
2
 74
0
 40
0
 40
0
 40
0.469519
 40
0.469519
 10
107.523
 20
-2.91483
 30
0
 10
107.191
 20
-2.58283
 30
0
  0
SPLINE
  5
B20
330
A02
100
AcDbEntity
  8
polygon225_0
100
AcDbSpline
210
0
220
0
230
1
 70
8
 71
1
 72
4
 73
2
 74
0
 40
0
 40
0
 40
0.469141
 40
0.469141
 10
107.191
 20
-2.58283
 30
0
 10
106.773
 20
-2.36983
 30
0
  0
SPLINE
  5
B21
330
A02
100
AcDbEntity
  8
polygon225_0
100
AcDbSpline
210
0
220
0
230
1
 70
8
 71
1
 72
4
 73
2
 74
0
 40
0
 40
0
 40
0.469707
 40
0.469707
 10
106.773
 20
-2.36983
 30
0
 10
106.309
 20
-2.29683
 30
0
  0
SPLINE
  5
B22
330
A02
100
AcDbEntity
  8
polygon225_0
100
AcDbSpline
210
0
220
0
230
1
 70
8
 71
1
 72
4
 73
2
 74
0
 40
0
 40
0
 40
0.469707
 40
0.469707
 10
106.309
 20
-2.29683
 30
0
 10
105.845
 20
-2.36983
 30
0
  0
SPLINE
  5
B23
330
A02
100
AcDbEntity
  8
polygon225_0
100
AcDbSpline
210
0
220
0
230
1
 70
8
 71
1
 72
4
 73
2
 74
0
 40
0
 40
0
 40
0.469141
 40
0.469141
 10
105.845
 20
-2.36983
 30
0
 10
105.427
 20
-2.58283
 30
0
  0
SPLINE
  5
B24
330
A02
100
AcDbEntity
  8
polygon227_4
100
AcDbSpline
210
0
220
0
230
1
 70
8
 71
1
 72
4
 73
2
 74
0
 40
0
 40
0
 40
0.469141
 40
0.469141
 10
200.517
 20
-4.25983
 30
0
 10
200.73
 20
-4.67783
 30
0
  0
SPLINE
  5
B25
330
A02
100
AcDbEntity
  8
polygon227_4
100
AcDbSpline
210
0
220
0
230
1
 70
8
 71
1
 72
4
 73
2
 74
0
 40
0
 40
0
 40
0.469519
 40
0.469519
 10
200.73
 20
-4.67783
 30
0
 10
201.062
 20
-5.00983
 30
0
  0
SPLINE
  5
B26
330
A02
100
AcDbEntity
  8
polygon227_4
100
AcDbSpline
210
0
220
0
230
1
 70
8
 71
1
 72
4
 73
2
 74
0
 40
0
 40
0
 40
0.469141
 40
0.469141
 10
201.062
 20
-5.00983
 30
0
 10
201.48
 20
-5.22283
 30
0
  0
SPLINE
  5
B27
330
A02
100
AcDbEntity
  8
polygon227_4
100
AcDbSpline
210
0
220
0
230
1
 70
8
 71
1
 72
4
 73
2
 74
0
 40
0
 40
0
 40
0.469864
 40
0.469864
 10
201.48
 20
-5.22283
 30
0
 10
201.944
 20
-5.29683
 30
0
  0
SPLINE
  5
B28
330
A02
100
AcDbEntity
  8
polygon227_4
100
AcDbSpline
210
0
220
0
230
1
 70
8
 71
1
 72
4
 73
2
 74
0
 40
0
 40
0
 40
0.468876
 40
0.468876
 10
201.944
 20
-5.29683
 30
0
 10
202.407
 20
-5.22283
 30
0
  0
SPLINE
  5
B29
330
A02
100
AcDbEntity
  8
polygon227_4
100
AcDbSpline
210
0
220
0
230
1
 70
8
 71
1
 72
4
 73
2
 74
0
 40
0
 40
0
 40
0.469141
 40
0.469141
 10
202.407
 20
-5.22283
 30
0
 10
202.825
 20
-5.00983
 30
0
  0
SPLINE
  5
B2A
330
A02
100
AcDbEntity
  8
polygon227_4
100
AcDbSpline
210
0
220
0
230
1
 70
8
 71
1
 72
4
 73
2
 74
0
 40
0
 40
0
 40
0.469519
 40
0.469519
 10
202.825
 20
-5.00983
 30
0
 10
203.157
 20
-4.67783
 30
0
  0
SPLINE
  5
B2B
330
A02
100
AcDbEntity
  8
polygon227_4
100
AcDbSpline
210
0
220
0
230
1
 70
8
 71
1
 72
4
 73
2
 74
0
 40
0
 40
0
 40
0.469141
 40
0.469141
 10
203.157
 20
-4.67783
 30
0
 10
203.37
 20
-4.25983
 30
0
  0
SPLINE
  5
B2C
330
A02
100
AcDbEntity
  8
polygon227_4
100
AcDbSpline
210
0
220
0
230
1
 70
8
 71
1
 72
4
 73
2
 74
0
 40
0
 40
0
 40
0.468876
 40
0.468876
 10
203.37
 20
-4.25983
 30
0
 10
203.444
 20
-3.79683
 30
0
  0
SPLINE
  5
B2D
330
A02
100
AcDbEntity
  8
polygon227_4
100
AcDbSpline
210
0
220
0
230
1
 70
8
 71
1
 72
4
 73
2
 74
0
 40
0
 40
0
 40
0.469864
 40
0.469864
 10
203.444
 20
-3.79683
 30
0
 10
203.37
 20
-3.33283
 30
0
  0
SPLINE
  5
B2E
330
A02
100
AcDbEntity
  8
polygon227_4
100
AcDbSpline
210
0
220
0
230
1
 70
8
 71
1
 72
4
 73
2
 74
0
 40
0
 40
0
 40
0.469141
 40
0.469141
 10
203.37
 20
-3.33283
 30
0
 10
203.157
 20
-2.91483
 30
0
  0
SPLINE
  5
B2F
330
A02
100
AcDbEntity
  8
polygon227_4
100
AcDbSpline
210
0
220
0
230
1
 70
8
 71
1
 72
4
 73
2
 74
0
 40
0
 40
0
 40
0.469519
 40
0.469519
 10
203.157
 20
-2.91483
 30
0
 10
202.825
 20
-2.58283
 30
0
  0
SPLINE
  5
B30
330
A02
100
AcDbEntity
  8
polygon227_4
100
AcDbSpline
210
0
220
0
230
1
 70
8
 71
1
 72
4
 73
2
 74
0
 40
0
 40
0
 40
0.469141
 40
0.469141
 10
202.825
 20
-2.58283
 30
0
 10
202.407
 20
-2.36983
 30
0
  0
SPLINE
  5
B31
330
A02
100
AcDbEntity
  8
polygon227_4
100
AcDbSpline
210
0
220
0
230
1
 70
8
 71
1
 72
4
 73
2
 74
0
 40
0
 40
0
 40
0.46872
 40
0.46872
 10
202.407
 20
-2.36983
 30
0
 10
201.944
 20
-2.29683
 30
0
  0
SPLINE
  5
B32
330
A02
100
AcDbEntity
  8
polygon227_4
100
AcDbSpline
210
0
220
0
230
1
 70
8
 71
1
 72
4
 73
2
 74
0
 40
0
 40
0
 40
0.469707
 40
0.469707
 10
201.944
 20
-2.29683
 30
0
 10
201.48
 20
-2.36983
 30
0
  0
SPLINE
  5
B33
330
A02
100
AcDbEntity
  8
polygon227_4
100
AcDbSpline
210
0
220
0
230
1
 70
8
 71
1
 72
4
 73
2
 74
0
 40
0
 40
0
 40
0.469141
 40
0.469141
 10
201.48
 20
-2.36983
 30
0
 10
201.062
 20
-2.58283
 30
0
  0
SPLINE
  5
B34
330
A02
100
AcDbEntity
  8
polygon227_4
100
AcDbSpline
210
0
220
0
230
1
 70
8
 71
1
 72
4
 73
2
 74
0
 40
0
 40
0
 40
0.469519
 40
0.469519
 10
201.062
 20
-2.58283
 30
0
 10
200.73
 20
-2.91483
 30
0
  0
SPLINE
  5
B35
330
A02
100
AcDbEntity
  8
polygon227_4
100
AcDbSpline
210
0
220
0
230
1
 70
8
 71
1
 72
4
 73
2
 74
0
 40
0
 40
0
 40
0.469141
 40
0.469141
 10
200.73
 20
-2.91483
 30
0
 10
200.517
 20
-3.33283
 30
0
  0
SPLINE
  5
B36
330
A02
100
AcDbEntity
  8
polygon227_4
100
AcDbSpline
210
0
220
0
230
1
 70
8
 71
1
 72
4
 73
2
 74
0
 40
0
 40
0
 40
0.469707
 40
0.469707
 10
200.517
 20
-3.33283
 30
0
 10
200.444
 20
-3.79683
 30
0
  0
SPLINE
  5
B37
330
A02
100
AcDbEntity
  8
polygon227_4
100
AcDbSpline
210
0
220
0
230
1
 70
8
 71
1
 72
4
 73
2
 74
0
 40
0
 40
0
 40
0.46872
 40
0.46872
 10
200.444
 20
-3.79683
 30
0
 10
200.517
 20
-4.25983
 30
0
  0
SPLINE
  5
B38
330
A02
100
AcDbEntity
  8
polygon229_5
100
AcDbSpline
210
0
220
0
230
1
 70
8
 71
1
 72
4
 73
2
 74
0
 40
0
 40
0
 40
0.469141
 40
0.469141
 10
9.249
 20
-4.25983
 30
0
 10
9.462
 20
-4.67783
 30
0
  0
SPLINE
  5
B39
330
A02
100
AcDbEntity
  8
polygon229_5
100
AcDbSpline
210
0
220
0
230
1
 70
8
 71
1
 72
4
 73
2
 74
0
 40
0
 40
0
 40
0.469519
 40
0.469519
 10
9.462
 20
-4.67783
 30
0
 10
9.794
 20
-5.00983
 30
0
  0
SPLINE
  5
B3A
330
A02
100
AcDbEntity
  8
polygon229_5
100
AcDbSpline
210
0
220
0
230
1
 70
8
 71
1
 72
4
 73
2
 74
0
 40
0
 40
0
 40
0.469141
 40
0.469141
 10
9.794
 20
-5.00983
 30
0
 10
10.212
 20
-5.22283
 30
0
  0
SPLINE
  5
B3B
330
A02
100
AcDbEntity
  8
polygon229_5
100
AcDbSpline
210
0
220
0
230
1
 70
8
 71
1
 72
4
 73
2
 74
0
 40
0
 40
0
 40
0.469864
 40
0.469864
 10
10.212
 20
-5.22283
 30
0
 10
10.676
 20
-5.29683
 30
0
  0
SPLINE
  5
B3C
330
A02
100
AcDbEntity
  8
polygon229_5
100
AcDbSpline
210
0
220
0
230
1
 70
8
 71
1
 72
4
 73
2
 74
0
 40
0
 40
0
 40
0.468876
 40
0.468876
 10
10.676
 20
-5.29683
 30
0
 10
11.139
 20
-5.22283
 30
0
  0
SPLINE
  5
B3D
330
A02
100
AcDbEntity
  8
polygon229_5
100
AcDbSpline
210
0
220
0
230
1
 70
8
 71
1
 72
4
 73
2
 74
0
 40
0
 40
0
 40
0.469141
 40
0.469141
 10
11.139
 20
-5.22283
 30
0
 10
11.557
 20
-5.00983
 30
0
  0
SPLINE
  5
B3E
330
A02
100
AcDbEntity
  8
polygon229_5
100
AcDbSpline
210
0
220
0
230
1
 70
8
 71
1
 72
4
 73
2
 74
0
 40
0
 40
0
 40
0.469519
 40
0.469519
 10
11.557
 20
-5.00983
 30
0
 10
11.889
 20
-4.67783
 30
0
  0
SPLINE
  5
B3F
330
A02
100
AcDbEntity
  8
polygon229_5
100
AcDbSpline
210
0
220
0
230
1
 70
8
 71
1
 72
4
 73
2
 74
0
 40
0
 40
0
 40
0.469141
 40
0.469141
 10
11.889
 20
-4.67783
 30
0
 10
12.102
 20
-4.25983
 30
0
  0
SPLINE
  5
B40
330
A02
100
AcDbEntity
  8
polygon229_5
100
AcDbSpline
210
0
220
0
230
1
 70
8
 71
1
 72
4
 73
2
 74
0
 40
0
 40
0
 40
0.468876
 40
0.468876
 10
12.102
 20
-4.25983
 30
0
 10
12.176
 20
-3.79683
 30
0
  0
SPLINE
  5
B41
330
A02
100
AcDbEntity
  8
polygon229_5
100
AcDbSpline
210
0
220
0
230
1
 70
8
 71
1
 72
4
 73
2
 74
0
 40
0
 40
0
 40
0.469864
 40
0.469864
 10
12.176
 20
-3.79683
 30
0
 10
12.102
 20
-3.33283
 30
0
  0
SPLINE
  5
B42
330
A02
100
AcDbEntity
  8
polygon229_5
100
AcDbSpline
210
0
220
0
230
1
 70
8
 71
1
 72
4
 73
2
 74
0
 40
0
 40
0
 40
0.469141
 40
0.469141
 10
12.102
 20
-3.33283
 30
0
 10
11.889
 20
-2.91483
 30
0
  0
SPLINE
  5
B43
330
A02
100
AcDbEntity
  8
polygon229_5
100
AcDbSpline
210
0
220
0
230
1
 70
8
 71
1
 72
4
 73
2
 74
0
 40
0
 40
0
 40
0.469519
 40
0.469519
 10
11.889
 20
-2.91483
 30
0
 10
11.557
 20
-2.58283
 30
0
  0
SPLINE
  5
B44
330
A02
100
AcDbEntity
  8
polygon229_5
100
AcDbSpline
210
0
220
0
230
1
 70
8
 71
1
 72
4
 73
2
 74
0
 40
0
 40
0
 40
0.469141
 40
0.469141
 10
11.557
 20
-2.58283
 30
0
 10
11.139
 20
-2.36983
 30
0
  0
SPLINE
  5
B45
330
A02
100
AcDbEntity
  8
polygon229_5
100
AcDbSpline
210
0
220
0
230
1
 70
8
 71
1
 72
4
 73
2
 74
0
 40
0
 40
0
 40
0.46872
 40
0.46872
 10
11.139
 20
-2.36983
 30
0
 10
10.676
 20
-2.29683
 30
0
  0
SPLINE
  5
B46
330
A02
100
AcDbEntity
  8
polygon229_5
100
AcDbSpline
210
0
220
0
230
1
 70
8
 71
1
 72
4
 73
2
 74
0
 40
0
 40
0
 40
0.469707
 40
0.469707
 10
10.676
 20
-2.29683
 30
0
 10
10.212
 20
-2.36983
 30
0
  0
SPLINE
  5
B47
330
A02
100
AcDbEntity
  8
polygon229_5
100
AcDbSpline
210
0
220
0
230
1
 70
8
 71
1
 72
4
 73
2
 74
0
 40
0
 40
0
 40
0.469141
 40
0.469141
 10
10.212
 20
-2.36983
 30
0
 10
9.794
 20
-2.58283
 30
0
  0
SPLINE
  5
B48
330
A02
100
AcDbEntity
  8
polygon229_5
100
AcDbSpline
210
0
220
0
230
1
 70
8
 71
1
 72
4
 73
2
 74
0
 40
0
 40
0
 40
0.469519
 40
0.469519
 10
9.794
 20
-2.58283
 30
0
 10
9.462
 20
-2.91483
 30
0
  0
SPLINE
  5
B49
330
A02
100
AcDbEntity
  8
polygon229_5
100
AcDbSpline
210
0
220
0
230
1
 70
8
 71
1
 72
4
 73
2
 74
0
 40
0
 40
0
 40
0.469141
 40
0.469141
 10
9.462
 20
-2.91483
 30
0
 10
9.249
 20
-3.33283
 30
0
  0
SPLINE
  5
B4A
330
A02
100
AcDbEntity
  8
polygon229_5
100
AcDbSpline
210
0
220
0
230
1
 70
8
 71
1
 72
4
 73
2
 74
0
 40
0
 40
0
 40
0.469864
 40
0.469864
 10
9.249
 20
-3.33283
 30
0
 10
9.175
 20
-3.79683
 30
0
  0
SPLINE
  5
B4B
330
A02
100
AcDbEntity
  8
polygon229_5
100
AcDbSpline
210
0
220
0
230
1
 70
8
 71
1
 72
4
 73
2
 74
0
 40
0
 40
0
 40
0.468876
 40
0.468876
 10
9.175
 20
-3.79683
 30
0
 10
9.249
 20
-4.25983
 30
0
  0
ENDSEC
  0
SECTION
  2
OBJECTS
  0
DICTIONARY
  5
F000
330
0
100
AcDbDictionary
  3
ACAD_GROUP
350
F001
  0
DICTIONARY
  5
F001
330
F000
100
AcDbDictionary
  0
ENDSEC
  0
EOF